<?xml version="1.0" encoding="utf-8"?>
<!-- Generator: Adobe Illustrator 20.1.0, SVG Export Plug-In . SVG Version: 6.00 Build 0)  -->
<!DOCTYPE svg PUBLIC "-//W3C//DTD SVG 1.1//EN" "http://www.w3.org/Graphics/SVG/1.1/DTD/svg11.dtd">
<svg version="1.1" id="Layer_1" xmlns="http://www.w3.org/2000/svg" xmlns:xlink="http://www.w3.org/1999/xlink" x="0px" y="0px"
	 viewBox="0 0 16 21" style="enable-background:new 0 0 16 21;" xml:space="preserve">
<style type="text/css">
	.st0{fill:#FFFFFF;}
</style>
<title>ico-media-voice</title>
<path class="st0" d="M8,13.3c2.2,0,4-1.7,4-3.9c0,0,0,0,0-0.1V4C12.1,1.8,10.2,0,8,0S3.9,1.8,3.9,4v5.3C3.9,11.5,5.7,13.3,8,13.3
	C7.9,13.3,8,13.3,8,13.3z M16,9.7V7.4c0-0.6-0.5-1.1-1.1-1.1c-0.6,0-1.1,0.5-1.1,1.1v2.3c0,3.2-2.6,5.7-5.7,5.7s-5.7-2.6-5.7-5.7
	V7.4c0-0.6-0.5-1.1-1.1-1.1C0.5,6.3,0,6.8,0,7.4v2.3c0,3.9,3,7.3,6.9,7.8v1.2H3.4c-0.6,0-1.1,0.5-1.1,1.1S2.8,21,3.4,21h9.1
	c0.6,0,1.1-0.5,1.1-1.1s-0.5-1.1-1.1-1.1l0,0H9.1v-1.2C13,17,16,13.6,16,9.7z"/>
</svg>
