<?xml version="1.0" encoding="utf-8"?>
<!-- Generator: Adobe Illustrator 20.1.0, SVG Export Plug-In . SVG Version: 6.00 Build 0)  -->
<!DOCTYPE svg PUBLIC "-//W3C//DTD SVG 1.1//EN" "http://www.w3.org/Graphics/SVG/1.1/DTD/svg11.dtd">
<svg version="1.1" id="Layer_1" xmlns="http://www.w3.org/2000/svg" xmlns:xlink="http://www.w3.org/1999/xlink" x="0px" y="0px"
	 viewBox="0 0 21 23.5" style="enable-background:new 0 0 21 23.5;" xml:space="preserve">
<style type="text/css">
	.st0{fill:#FFFFFF;}
</style>
<title>ico-reports</title>
<g id="ico-reports">
	<path class="st0" d="M6.6,5h8c0.8,0,1.4-0.6,1.4-1.3c0,0,0,0,0,0l0,0c0-0.8-0.6-1.4-1.4-1.4c0,0,0,0-0.1,0h-1.7
		c-0.4,0-0.7-0.3-0.7-0.7c0,0,0,0,0,0l0,0c0-0.9-0.7-1.6-1.6-1.6l0,0C9.7,0,9,0.7,8.9,1.6c0,0,0,0,0,0l0,0c0,0.4-0.3,0.7-0.7,0.7
		c0,0,0,0,0,0H6.6c-0.8,0-1.4,0.6-1.4,1.3c0,0,0,0,0,0.1l0,0C5.1,4.4,5.7,5,6.6,5C6.5,5,6.5,5,6.6,5z M10.6,0.9
		c0.4,0,0.7,0.3,0.7,0.7s-0.3,0.7-0.7,0.7c-0.4,0-0.7-0.3-0.7-0.7C9.9,1.2,10.2,0.9,10.6,0.9C10.6,0.9,10.6,0.9,10.6,0.9z M18.7,3.3
		h-1.8c0,0.2,0,0.3,0,0.4c0,1.3-1,2.3-2.3,2.3c0,0-1,0-1,0h-7c-1.3,0-2.3-1-2.4-2.2c0,0,0-0.3,0-0.5H1.5C0.6,3.5,0,4.3,0.1,5.2v16.4
		c0,1,0.8,1.8,1.9,1.8c0,0,0,0,0,0h17.3c1,0,1.9-0.8,1.9-1.8c0,0,0,0,0,0V5.2C21.1,4.1,20.2,3.3,18.7,3.3z M19.6,21.9h-18V8.1h18
		V21.9z M4.3,12.9h12.1c0.3,0,0.5-0.2,0.5-0.4c0,0,0,0,0,0V12c0-0.3-0.2-0.5-0.5-0.5c0,0,0,0,0,0H4.3c-0.3,0-0.5,0.2-0.5,0.4
		c0,0,0,0,0,0v0.5C3.8,12.7,4,12.9,4.3,12.9C4.3,12.9,4.3,12.9,4.3,12.9z M4.3,18.2h12.3c0.3,0,0.5-0.2,0.5-0.4c0,0,0,0,0,0v-0.5
		c0-0.3-0.2-0.5-0.5-0.5c0,0,0,0,0,0H4.3c-0.3,0-0.5,0.2-0.5,0.4c0,0,0,0,0,0v0.5C3.8,18,4,18.2,4.3,18.2
		C4.3,18.2,4.3,18.2,4.3,18.2z"/>
</g>
</svg>
