<svg id="Capa_1" data-name="Capa 1" xmlns="http://www.w3.org/2000/svg" viewBox="0 0 467.21 512"><title>ico-ice-crystal</title><path d="M462.22,271,369.1,295.92l-35.9-20.71V236.35L368.69,216,462.22,241a21.76,21.76,0,0,0,11.25-42l-51.28-13.74,47.27-27.14a21.76,21.76,0,1,0-21.66-37.74l-47.37,27.2,13.74-51.29a21.76,21.76,0,1,0-42-11.27l-25,93.13-35.71,20.51-33.85-19.57V138l68.45-68.45a21.76,21.76,0,0,0-30.77-30.78L277.63,76.46V21.76a21.76,21.76,0,0,0-43.52,0V76.19L196.7,38.78a21.76,21.76,0,0,0-30.77,30.78l68.18,68.18v41.5l-33.59,19.38L164.8,178.12,139.86,85a21.76,21.76,0,1,0-42,11.27l13.73,51.28L64.2,120.37a21.76,21.76,0,1,0-21.66,37.74l47.26,27.14L38.53,199a21.76,21.76,0,1,0,11.26,42L143.33,216l35.45,20.35,0,38.89L142.91,296,49.79,271a21.76,21.76,0,1,0-11.26,42l51.09,13.7L42.49,353.92a21.76,21.76,0,0,0,10.9,40.6,21.4,21.4,0,0,0,10.86-2.92l47.37-27.34L97.83,415.73a21.77,21.77,0,0,0,15.39,26.66,21.51,21.51,0,0,0,5.64.75,21.77,21.77,0,0,0,21-16.15l25.06-93.51,35.65-20.57,33.53,19.35v42l-68.18,68.18a21.76,21.76,0,0,0,30.77,30.77l37.4-37.41v54.41a21.76,21.76,0,0,0,43.53,0V435.56l37.68,37.68a21.76,21.76,0,1,0,30.77-30.77L277.63,374V332.43l33.82-19.52,35.64,20.57L372.15,427a21.75,21.75,0,1,0,42-11.26l-13.8-51.48,47.39,27.34a21.43,21.43,0,0,0,10.86,2.92,21.76,21.76,0,0,0,10.9-40.6l-47.13-27.2L473.47,313a21.76,21.76,0,0,0-11.25-42Zm-172.54,4.23L256,294.66l-33.66-19.45,0-38.93L256,216.84l33.68,19.47Z" transform="translate(-22.39 0)" fill="#fff"/></svg>