<?xml version="1.0" encoding="utf-8"?>
<!-- Generator: Adobe Illustrator 21.0.2, SVG Export Plug-In . SVG Version: 6.00 Build 0)  -->
<!DOCTYPE svg PUBLIC "-//W3C//DTD SVG 1.1//EN" "http://www.w3.org/Graphics/SVG/1.1/DTD/svg11.dtd">
<svg version="1.1" id="Layer_1" xmlns="http://www.w3.org/2000/svg" xmlns:xlink="http://www.w3.org/1999/xlink" x="0px" y="0px"
	 viewBox="0 0 75.6 75.6" style="enable-background:new 0 0 75.6 75.6;" xml:space="preserve">
<style type="text/css">
	.st0{fill:#F58E09;}
	.st1{fill:#FFFFFF;}
</style>
<title>ico-roundel-arrow-orange</title>
<g>
	<path class="st0" d="M37.8,0C16.9,0,0,16.9,0,37.8c0,20.9,16.9,37.8,37.8,37.8c20.9,0,37.8-16.9,37.8-37.8C75.6,16.9,58.6,0,37.8,0
		z M63.1,41.6H41.7v21.6c0,2-1.6,3.7-3.7,3.7s-3.7-1.6-3.7-3.7V41.5H12.9c-2,0-3.7-1.6-3.7-3.6s1.6-3.7,3.6-3.7h21.5V12.6
		c0-2,1.6-3.7,3.7-3.7s3.7,1.6,3.7,3.7v21.6h21.4c2,0,3.7,1.6,3.7,3.6C66.8,39.9,65.1,41.5,63.1,41.6z"/>
	<path class="st1" d="M63.1,34.2H41.7V12.6c0-2.1-1.6-3.7-3.7-3.7s-3.7,1.7-3.7,3.7v21.6H12.8c-2,0-3.6,1.7-3.6,3.7s1.7,3.6,3.7,3.6
		h21.4v21.7c0,2.1,1.6,3.7,3.7,3.7s3.7-1.7,3.7-3.7V41.6h21.4c2-0.1,3.7-1.7,3.7-3.8C66.8,35.8,65.1,34.2,63.1,34.2z"/>
</g>
</svg>
