<svg xmlns="http://www.w3.org/2000/svg" width="18" height="22" viewBox="0 0 18 22">
  <path fill="#FFF" fill-rule="evenodd" d="M656.353856,369.061825 C656.353856,367.687623 657.486696,366.571389 658.879744,366.571389 C660.263981,366.571389 661.392415,367.675863 661.405892,369.038303 C661.405892,369.04086 661.405114,369.043672 661.405114,369.046229 L661.405892,369.046229 L661.405892,369.061825 L661.405892,371.243417 L656.353856,371.243417 L656.353856,369.061825 Z M667.320452,371.243417 L666.358147,371.243417 L665.024708,371.243417 L665.024708,369.087902 C665.025485,369.078698 665.025485,369.06975 665.025485,369.061825 C665.025485,365.719512 662.268934,363 658.879744,363 C655.491591,363 652.734781,365.719512 652.734781,369.061825 L652.734781,371.243417 L651.641594,371.243417 L650.679289,371.243417 C650.303749,371.243417 650,371.543056 650,371.913515 L650,384.329901 C650,384.700105 650.303749,385 650.679289,385 L667.320711,385 C667.696251,385 668,384.70036 668,384.329901 L668,371.913515 C667.999741,371.543312 667.695991,371.243417 667.320452,371.243417 L667.320452,371.243417 Z" transform="translate(-650 -363)"/>
</svg>
