<?xml version="1.0" encoding="utf-8"?>
<!-- Generator: Adobe Illustrator 20.1.0, SVG Export Plug-In . SVG Version: 6.00 Build 0)  -->
<!DOCTYPE svg PUBLIC "-//W3C//DTD SVG 1.1//EN" "http://www.w3.org/Graphics/SVG/1.1/DTD/svg11.dtd">
<svg version="1.1" id="Layer_1" xmlns="http://www.w3.org/2000/svg" xmlns:xlink="http://www.w3.org/1999/xlink" x="0px" y="0px"
	 viewBox="0 0 22 20" style="enable-background:new 0 0 22 20;" xml:space="preserve">
<style type="text/css">
	.st0{fill:#FFFFFF;}
</style>
<title>ico-media-video</title>
<path class="st0" d="M22,7.7c0-0.6,0-1.3-0.1-2.1c-0.1-0.8-0.2-1.5-0.4-2.3c-0.2-0.7-0.5-1.4-1.1-1.9c-0.5-0.5-1.2-0.8-1.9-0.9
	C15,0.1,14.5-0.1,11,0C7.5,0,7,0.1,3.5,0.4C2.8,0.5,2.1,0.8,1.6,1.3C1,1.8,0.6,2.5,0.5,3.2C0.3,4,0.2,4.7,0.1,5.5
	C0.1,6.4,0,7.1,0,7.6C0,8.2,0,9,0,10c0,1,0,1.8,0,2.3c0,0.6,0,1.3,0.1,2.2c0.1,0.8,0.2,1.5,0.4,2.3c0.1,0.7,0.5,1.4,1.1,1.9
	c0.5,0.5,1.2,0.8,1.9,0.9C7,19.9,7.5,20,11,20c3.5,0.1,4-0.1,7.5-0.4c0.7-0.1,1.4-0.4,1.9-0.9c0.5-0.5,0.9-1.2,1.1-1.9
	c0.2-0.8,0.3-1.5,0.4-2.3c0.1-0.9,0.1-1.6,0.1-2.1c0-0.6,0-1.3,0-2.3C22,9,22,8.2,22,7.7L22,7.7z M16.5,10.8l-8,5
	C8.3,15.9,8.2,16,8,16c-0.2,0-0.3,0-0.5-0.1C7.2,15.7,7,15.4,7,15V5c0-0.6,0.5-1,1-1c0.2,0,0.4,0.1,0.5,0.1l8,5
	c0.5,0.3,0.6,0.9,0.3,1.4C16.7,10.7,16.6,10.8,16.5,10.8L16.5,10.8z"/>
</svg>
