<svg id="Layer_1" data-name="Layer 1" xmlns="http://www.w3.org/2000/svg" viewBox="0 0 25 28"><title>ico-news</title><path d="M15.57,1.57,12.46,9a.23.23,0,0,0,.23.31h6.11a.26.26,0,0,1,.2.4L8.26,25l-1.6-.47,4.21-10.87a.26.26,0,0,0-.23-.35H4.3A.23.23,0,0,1,4.07,13L8.46,1a12.35,12.35,0,0,0-10,12A12.29,12.29,0,0,0,6.31,24.39l-1.45,4a.35.35,0,0,0,0,.34.39.39,0,0,0,.33.22h0a.43.43,0,0,0,.35-.18l3.1-3.71a12.64,12.64,0,0,0,2.36.22A12.39,12.39,0,0,0,23.5,13,12.3,12.3,0,0,0,15.57,1.57Z" transform="translate(1.5 -0.96)" fill="#fff"/></svg>