<svg id="Layer_1" data-name="Layer 1" xmlns="http://www.w3.org/2000/svg" viewBox="0 0 26 26"><title>ico-announcements</title><path d="M17.81,1.5c-1.67,0-3,1.15-3.92,2.91h0c-1.37,2.68-3.4,4.41-5.63,4.41H.75c-1.82,0-3.25,1.79-3.25,4.06s1.43,4.06,3.25,4.06a1.63,1.63,0,0,1,1.62,1.62v7.31A1.62,1.62,0,0,0,4,27.5H7.25a1.62,1.62,0,0,0,1.63-1.62v-.81c0-.81-.81-1.18-.81-1.62V17.75s0,0,0-.05a.79.79,0,0,1,.09-.32l0-.07a.81.81,0,0,1,.25-.24h0A1,1,0,0,1,8.69,17c2.05.22,3.91,1.87,5.18,4.37h0c.94,1.76,2.25,2.9,3.92,2.9,3.73,0,5.69-5.72,5.69-11.37S21.55,1.5,17.81,1.5ZM13.75,12.87a22.73,22.73,0,0,1,.13-2.44h2.3c.9,0,1.63,1.09,1.63,2.44s-.73,2.44-1.62,2.44h-2.3A22.7,22.7,0,0,1,13.75,12.87Zm-14.62,0c0-1.35.73-2.44,1.63-2.44h5.7a3.76,3.76,0,0,0-.82,2.44,3.75,3.75,0,0,0,.82,2.44H.75C-.15,15.31-.87,14.22-.87,12.87Zm8.12,13H4V18.56a3.23,3.23,0,0,0-.44-1.62h3a2.44,2.44,0,0,0-.14.8v5.69A2.45,2.45,0,0,0,7.13,25l.11.13Zm1-10.55H8.06c-.9,0-1.62-1.09-1.62-2.44s.73-2.44,1.62-2.44h.18A6.65,6.65,0,0,0,12.48,8.8a23.88,23.88,0,0,0,0,8.16A6.64,6.64,0,0,0,8.25,15.32Zm9.57,7.3c-1.64,0-3-2.33-3.69-5.69h2.06c1.82,0,3.25-1.78,3.25-4.06S18,8.81,16.19,8.81H14.12c.64-3.35,2.05-5.69,3.69-5.69,2.24,0,4.06,4.37,4.06,9.75S20.06,22.62,17.81,22.62Z" transform="translate(2.5 -1.5)" fill="#fff"/></svg>