<svg id="Layer_1" data-name="Layer 1" xmlns="http://www.w3.org/2000/svg" viewBox="0 0 26 26"><title>ico-macro</title><path d="M10.88,27.49a13,13,0,1,1,13-13A13,13,0,0,1,10.88,27.49Zm.6-13.6h5.11a20.15,20.15,0,0,0-.8-5.11H11.47Zm5.11,1.19H11.47v5.1h4.31A20.15,20.15,0,0,0,16.58,15.08Zm6.09,0H17.74a21.38,21.38,0,0,1-.75,5.1h4.23A11.72,11.72,0,0,0,22.67,15.08Zm-2.18,6.25H16.63a18.71,18.71,0,0,1-2.16,4.4A11.86,11.86,0,0,0,20.49,21.33Zm-7.75,4.81a17.14,17.14,0,0,0,2.67-4.81H11.47v4.94A11.94,11.94,0,0,0,12.73,26.15Zm-2.46.13V21.33H6.06a17.16,17.16,0,0,0,2.62,4.75A11.92,11.92,0,0,0,10.28,26.28Zm-3.36-.67a18.75,18.75,0,0,1-2.08-4.28H1.26A11.86,11.86,0,0,0,6.92,25.61ZM.54,20.18H4.48a21.37,21.37,0,0,1-.75-5.1H-.92A11.72,11.72,0,0,0,.54,20.18ZM-.92,13.89H3.73a21.38,21.38,0,0,1,.76-5.11H.54A11.72,11.72,0,0,0-.92,13.89ZM1.27,7.63H4.84A18.75,18.75,0,0,1,6.92,3.36,11.86,11.86,0,0,0,1.27,7.63Zm9-4.93a11.93,11.93,0,0,0-1.6.19A17.16,17.16,0,0,0,6.07,7.63h4.21Zm0,6.09H5.68a20.15,20.15,0,0,0-.8,5.11h5.4Zm-5.4,6.3a20.15,20.15,0,0,0,.8,5.1h4.6v-5.1ZM11.47,2.69V7.63H15.4a17.13,17.13,0,0,0-2.66-4.8A11.92,11.92,0,0,0,11.47,2.69Zm3,.54a18.72,18.72,0,0,1,2.16,4.39h3.85A11.86,11.86,0,0,0,14.47,3.24Zm6.74,5.54H17a21.37,21.37,0,0,1,.75,5.11h4.93A11.73,11.73,0,0,0,21.21,8.78Z" transform="translate(2.13 -1.48)" fill="#fff"/></svg>