<?xml version="1.0" encoding="UTF-8"?>
<svg id="Layer_2" data-name="Layer 2" xmlns="http://www.w3.org/2000/svg" viewBox="0 0 213.47 236.6">
  <defs>
    <style>
      .cls-1 {
        fill: #d3d3d3;
      }
    </style>
  </defs>
  <g id="Layer_3" data-name="Layer 3">
    <path class="cls-1" d="M213.04,72.3c-.04-8.8-6.33-19.57-13.97-23.93L120.05,3.24c-7.64-4.36-20.11-4.31-27.71,.13L13.74,49.24C6.14,53.67-.04,64.5,0,73.3l.43,91c.04,8.8,6.33,19.57,13.97,23.93l70.89,40.49v-58.42l-28.62,16.81-38.99-23.03v-46.06l39,24.29,40.4-24.24v116.93c5.89,2.04,13.28,2.14,19.33,.28V118.06l40.4,24.24,39-24.29v46.06l-38.99,23.03-28.62-16.81v58.82l71.54-41.75c7.6-4.44,13.78-15.26,13.74-24.06l-.43-91Zm-66.4,11.36l-40.4,23.01-40.4-23.01V37.6l40.4,22.25,40.4-22.25v46.06Z"/>
  </g>
</svg>