<?xml version="1.0" encoding="utf-8"?>
<!-- Generator: Adobe Illustrator 25.2.3, SVG Export Plug-In . SVG Version: 6.00 Build 0)  -->
<svg version="1.1" id="Layer_1" xmlns="http://www.w3.org/2000/svg" xmlns:xlink="http://www.w3.org/1999/xlink" x="0px" y="0px"
	 viewBox="0 0 280 280" style="enable-background:new 0 0 280 280;" xml:space="preserve">
<style type="text/css">
	.st0{fill:#B9B9B9;}
	.st1{fill:#FFFFFF;}
</style>
<path class="st0" d="M140.5,0.4c-76.8,0-139,62.2-139,139s62.2,139,139,139s139-62.2,139-139v0C279.5,62.7,217.3,0.4,140.5,0.4z"/>
<path class="st1" d="M191.7,124h-16.3c0-3.5,0-18.9,0-19.2c0-20-16.2-36.2-36.2-36.2c-20,0-36.2,16.2-36.2,36.2c0,0.3,0,16.8,0,19.2
	H89.3c-3.4,0-6.2,2.8-6.2,6.2v74c0,3.4,2.8,6.2,6.2,6.2h102.5c3.4,0,6.2-2.8,6.2-6.2v-74C197.9,126.8,195.1,124,191.7,124z
	 M122.4,104.8c0-9.3,7.5-16.9,16.9-16.9s16.9,7.5,16.9,16.9c0,0.3,0,17.6,0,19.2h-33.6C122.4,121.8,122.4,105.1,122.4,104.8z"/>
</svg>
