<?xml version="1.0" encoding="iso-8859-1"?>
<!-- Generator: Adobe Illustrator 20.0.0, SVG Export Plug-In . SVG Version: 6.00 Build 0)  -->
<!DOCTYPE svg PUBLIC "-//W3C//DTD SVG 1.1//EN" "http://www.w3.org/Graphics/SVG/1.1/DTD/svg11.dtd">
<svg version="1.1" id="Layer_1" xmlns="http://www.w3.org/2000/svg" xmlns:xlink="http://www.w3.org/1999/xlink" x="0px" y="0px"
	 viewBox="0 0 700 150" style="enable-background:new 0 0 700 150;" xml:space="preserve">
<g>
	<path style="fill:#FFFFFF;" d="M277.322,66.394l-1.043-0.02l-0.02-3.121c0.671-0.113,1.235,0.053,1.681,0.507
		C278.558,64.544,278.328,65.999,277.322,66.394 M279.731,63.026c-1.85-0.784-4.279-0.585-6.284-0.616
		c0,0.228-0.052,0.448,0.062,0.616c0.225,0,0.679,0.143,0.679,0.143v3.205c-0.168,0-0.568,0.02-0.679,0.074
		c0,0.227-0.062,0.449,0.053,0.615c1.964-0.109,3.87,0.562,5.724-0.054c0.781-0.503,1.288-1.346,1.288-2.299
		C280.52,64.093,280.353,63.361,279.731,63.026z"/>
	<path style="fill:#FFFFFF;" d="M283.159,37.767l0.618,0.225c0,0-0.246,0.479-0.103,0.727c0.172,0.305,0.471,0.62,0.774,0.452
		c0.449-0.243,0.732-0.782,0.565-1.179h0.446l0.065,0.404c-0.061,0.728-0.282,1.252-1.268,1.197
		C283.351,39.542,283.024,38.587,283.159,37.767 M285.115,40.482c-0.009-0.016,0.769,0.243,0.769,0.243l0.241,0.317l0.372-4.298
		l-0.372-0.3c0,0-0.564,0.791-1.829,0.791c-0.691,0-1.432-0.146-2.038-0.172c0.221,0.728-0.098,1.587,0.356,2.434
		C283.102,40.402,284.108,40.54,285.115,40.482z"/>
	<path style="fill:#FFFFFF;" d="M290.057,37.732h0.446c-0.168,0.396,0.114,0.936,0.556,1.184c0.31,0.163,0.605-0.152,0.781-0.457
		c0.143-0.247-0.106-0.727-0.106-0.727l0.622-0.22c0.13,0.815-0.197,1.77-1.1,1.821c-0.982,0.055-1.203-0.47-1.26-1.197
		L290.057,37.732 M291.615,39.95c1.424-0.206,1.522-2.157,1.469-3.505c-0.896,0.447-1.292,0.623-2.185,0.656
		c-0.904,0.035-1.648-0.824-1.648-0.824l-0.319,0.168l0.843,4.43C289.774,40.874,290.252,40.142,291.615,39.95z"/>
	<path style="fill:#FFFFFF;" d="M338.061,70.373c-0.057-0.836-0.335-1.623-1.174-2.019c-0.454-0.167-1.129-0.28-1.518,0.06
		c-0.728,0.393-0.675,1.176-0.56,1.791c0.167,0.283,0.393,0.618,0.785,0.508c0.729-0.447-0.564-1.288,0.503-1.57
		c0.504-0.058,0.79,0.561,0.958,0.897c0.052,0.841-0.287,1.571-1.015,1.964c-0.782,0.108-1.566,0.279-2.242-0.168
		c-0.728-0.561-1.288-1.348-1.346-2.299c-0.11-1.291,0.732-2.526,1.906-3.088c2.581-1.232,4.434,1.069,6.279,2.693
		C339.689,69.256,338.679,69.477,338.061,70.373 M327.683,63.646c-0.503-0.788-0.279-1.904,0.061-2.635
		c0.5-0.848,1.342-1.63,2.299-1.798c1.342-0.28,2.521,0.282,3.535,1.065c1.452,1.463,2.352,3.481,3.587,5.16
		c-1.407-0.502-3.42-0.279-4.602,0.955c-0.389,0.67-0.782,1.291-0.896,2.074C330.604,66.843,329.143,65.216,327.683,63.646z
		 M315.292,68.806c-3.367-0.338-6.504,0.168-9.426,1.178c0.282-1.91,0.34-4.037,0.23-5.947c1.624-2.074,4.43-1.848,6.95-2.015
		c4.487-0.172,8.239,0.757,12.62,1.624c0.9,2.581,3.812,4.319,4.823,6.842C325.33,70.935,320.508,69.084,315.292,68.806z
		 M313.835,71.723c-2.471,0.167-5.105,0.054-7.293-0.675c1.959-1.123,4.487-1.231,6.84-1.291l0.561,0.06
		C313.779,70.433,313.942,71.103,313.835,71.723z M296.671,71.723L277.546,68.3c-2.634-0.502-5.723-0.281-8.243,0.054
		c0.446-1.679,0.614-3.585,0.446-5.328c0.282-0.951,1.403-0.896,2.132-1.344c3.137-0.784,6.446,0,9.535,0.34
		c7.797,1.456,15.426,3.194,23.554,3.698c0.282,1.798-0.167,3.704-0.114,5.44c0.564,0.898,1.57,0.843,2.414,1.066
		C303.74,72.451,300.091,72.171,296.671,71.723z M276.818,70.995c-2.467-0.059-5.163-0.172-7.404-0.955l-0.278-0.336
		c2.131-1.069,5.326-0.897,7.735-0.394L276.818,70.995z M244.567,71.048c2.413-0.955,4.938-1.571,7.232-2.861
		c-2.405-1.232-4.986-2.128-7.232-3.758c7.74,0.619,16.044,1.067,24.172,0.675c0.058,1.794-0.67,3.478-0.499,5.101
		c0.896,1.123,2.238,1.011,3.416,1.351C262.738,72.283,253.264,72.003,244.567,71.048z M261.114,58.038
		c2.581,0,4.712-0.956,7.065-1.458c2.246-0.34,4.487,0.109,6.509-0.616c0.11,1.118,0.728,2.187,0.278,3.364l-3.084,0.336
		c-1.289,0.393-2.807,1.008-3.367,2.243c-0.275-0.392,0.225-1.347-0.614-1.347c-0.225,0-0.503,0.111-0.618,0.392
		c0.053,0.227,0.22,0.507,0.114,0.73c-0.675,0.225-0.957,0.841-0.56,1.403c-0.115,0.112-0.336,0.055-0.45,0.055
		c-0.561-0.391-0.34-1.178-0.954-1.514c-0.225-0.447,0.393-0.728,0-1.066c-0.282-0.224-0.785-0.224-1.01,0
		c-0.335,0.619,0.168,1.515-0.843,1.682l0.226,1.012c-0.728,0.335-0.786-0.562-1.011-0.898c-0.11-0.561-0.785-0.896-0.278-1.457
		c0.168-0.279-0.225-0.506-0.45-0.506c-0.339-0.056-0.56,0.168-0.674,0.393c0.396,0.675-0.393,0.957-0.839,1.122l0.111,1.347
		c-0.56,0-0.728-0.615-0.896-1.012c0.111-0.56-0.618-0.447-0.674-0.954C259.486,60.056,259.601,58.373,261.114,58.038z
		 M272.217,44.466c0.564-3.812,4.487-5.723,6.787-8.357c0.057,1.623-1.232,2.747-2.299,3.812L272.217,44.466z M277.322,33.754
		c-0.058,2.239-2.467,3.418-4.038,4.653C273.955,36.501,275.415,34.591,277.322,33.754z M278.496,31.844
		c1.739-0.223,3.371,0.28,4.606,1.462c0.131-0.219,0.446-0.339,0.556-0.567c0-0.055,0-0.167-0.053-0.221
		c1.072-0.331,2.226-0.646,3.412-0.726c1.411-0.101,2.868,0.088,4.271,0.331c0.057,0.227,0.278,0.561,0.56,0.561
		c0.728-0.393,1.117-1.232,1.911-1.571c0.671-0.221,1.567-0.388,2.242-0.333c-0.229,1.008-0.282,2.072-1.178,2.861
		c-0.339,0.447-1.063,0.166-1.178,0.728c1.289,1.791,1.121,4.598,0.671,6.731c-0.282,0.504-0.503,0.889-1.35,1.177
		c-0.303,0.106-0.822,0.114-0.822,0.114l-0.069,0.336l1.129,0.715l-0.103,0.649l-1.076-0.505l-0.155,0.568l1.104,0.716l-0.115,0.544
		l-1.125-0.448l-0.221,0.675l1.133,0.684l-0.226,1.004l-3.428-1.327c0,0,0-1.52-0.004-1.536c0.56-0.282,1.121-0.789,1.288-1.403
		c0.058-0.335,0.168-0.897-0.168-1.179c-0.695,0.461-1.228,0.676-2.09,0.749c-1.068,0.099-1.714-0.225-2.115-0.468
		c-0.335,0.562-0.151,1.105,0.221,1.625c0.323,0.449,1.215,0.721,1.215,0.721v1.622l-3.232,1.528l-0.295-0.884l1.036-0.645
		l-0.23-0.779l-1.072,0.624l-0.221-0.523l1.167-0.746l-0.262-0.713l-1.19,0.639l-0.135-0.412l1.166-0.875
		c0,0-0.066-0.419-0.073-0.452c-0.958-0.114-2.131-0.335-2.467-1.458c-0.56-1.738-0.622-3.871-0.507-5.723
		c0.053-0.28,0.728-0.448,0.278-0.729c-1.625,0.06-2.299-1.794-2.807-2.914V31.844z M280.856,27.471
		c-0.503-0.18-0.548-0.667-0.548-0.667c0.671-0.616,1.726-1.127,2.564-1.519c0.058,0.012-0.057,1.127,0.004,1.131
		c-0.094,0.255-0.315,0.076-0.675,0.536c-0.303,0.385,0.074,1.151,0.56,1.119c0.43-0.031,0.602-0.051,0.614-0.039
		c0.229,0.675-0.266,0.983-0.781,1.231c-0.732,0.356-1.064-0.616-1.064-0.616l0.561-0.28l-0.729-1.399
		C281.363,26.968,281.118,27.567,280.856,27.471z M292.355,30.051c-0.062,0.167-0.225,0.282-0.336,0.394
		c-3.142-0.616-6.676-0.34-9.593,0.556c-0.168-0.108-0.335-0.168-0.45-0.335C284.84,29.435,289.046,29.263,292.355,30.051z
		 M290.277,24.722c-0.016-0.008-0.601,1.015-0.618,1.065c-0.339,0.058-0.899-0.126-0.953,0.434c-0.282,0.786,0.282,1.362,0.9,1.137
		c0,0.333-0.246,0.804-0.675,0.953c-0.499,0.172-1.076-0.088-1.247-0.54l0.013-0.356l0.572,0.02l-0.012-1.75l-0.614-0.008
		l0.054-0.675c0,0-0.577-0.153-0.884-0.121c-0.311,0.035-0.728,0.126-0.728,0.126v0.776l-0.515,0.003l-0.017,1.696l0.688-0.013
		c0,0,0.024,0.875-0.503,1.008c-0.867,0.219-1.137,0.098-1.305-0.46l-0.045-0.38c0,0,0.798,0.02,0.777-0.643
		c-0.012-0.409-0.053-0.867-0.532-0.92c-0.327-0.039-0.393,0.146-0.736,0.146c-0.045-0.049-0.336-1.164-0.348-1.219
		C285.622,24.33,288.088,23.994,290.277,24.722z M290.785,27.416c0.56,0.335,1.137-0.1,1.177-0.62
		c0.033-0.477-0.536-0.763-0.928-0.816l-0.083-1.09l2.41,1.063l-0.168,0.734l-0.732-0.339l-0.442,1.344l0.503,0.226
		c0,0-0.274,0.925-1.403,0.675C290.653,28.488,290.617,27.864,290.785,27.416z M303.18,41.716c-2.361-2.354-6.734-3.253-7.012-7.011
		C298.242,37.453,302.39,38.015,303.18,41.716z M302.28,36.837c-1.629-1.123-4.652-1.792-4.771-4.433
		C299.755,32.912,301.105,34.986,302.28,36.837z M298.859,54.674c-1.403-0.395-3.362-0.395-4.323-2.024
		c-0.725-1.172-1.117-2.91-0.442-4.313C294.147,51.138,297.063,52.876,298.859,54.674z M300.88,54.501
		c-2.021-3.023-6.619-4.989-6.059-9.252C295.832,48.784,301.547,50.243,300.88,54.501z M296.393,38.463
		c2.126,2.747,6.619,4.205,6.394,8.189C300.88,43.79,296.393,42.332,296.393,38.463z M302.054,50.69
		c-1.963-3.142-7.011-4.653-6.168-8.86C297.342,45.081,302.168,46.653,302.054,50.69z M286.239,51.867l0.675-0.053
		c-0.675,0.615-1.01,1.455-1.126,2.411l-1.403,0.055C284.779,53.493,285.115,52.202,286.239,51.867z M289.941,53.831l-2.36,0.221
		c0.061-0.836,0.286-1.85,1.015-2.354C289.549,51.981,289.774,52.99,289.941,53.831z M293.305,53.719l-1.625-0.167
		c-0.225-0.676-0.56-1.35-1.177-1.911C291.848,51.418,292.691,52.765,293.305,53.719z M291.005,50.015l-5.048,0.28
		c-0.388-0.108-0.56-0.615-0.278-0.948c0.838-0.676,1.738-1.406,2.806-1.459c1.121,0.221,2.238,0.503,2.97,1.344
		C291.565,49.626,291.345,49.96,291.005,50.015z M279.568,57.982l-0.058,1.794l-1.015-0.112
		C278.558,59.048,279.003,58.432,279.568,57.982z M278.61,56.748c0.676-2.468,4.492-4.26,4.152-7.461
		c0.675,0.956,0.786,2.355,0.446,3.422C282.538,54.728,280.066,55.403,278.61,56.748z M277.322,59.548l-1.063-0.107
		c0.11-0.227,0.331-0.452,0.56-0.676C277.154,58.821,277.154,59.273,277.322,59.548z M276.704,55.963
		c-0.949-3.027,2.413-4.993,3.702-7.46c0.564-0.842,0.842-1.738,1.124-2.693C282.872,50.075,278.274,52.541,276.704,55.963z
		 M273.562,48.892c-0.614-4.093,3.932-6.392,5.608-9.307C279.003,43.4,275.08,45.702,273.562,48.892z M280.014,42.949
		c1.125,4.32-4.32,6.506-4.995,10.376C274.29,48.952,278.496,46.485,280.014,42.949z M305.589,51.365
		c0.446-0.619,0-1.404-0.11-2.078l-0.843-2.802c5.719,1.063,10.767,4.317,16.714,5.156c0.274,0.956,1.285,1.575,2.074,1.911
		l2.017,0.167c0.114,1.852,0.789,3.423,1.906,4.821c-0.843,0.9-1.403,2.02-1.906,2.919c-4.88-0.729-9.814-1.911-15.087-1.349
		c0.9-1.346,0.392-3.029,0-4.487c-0.838-0.616-1.125-2.019-2.357-2.131c-0.839,0.955,0.9,1.683,0.9,2.747
		c0.446,1.462,0.168,3.088-0.732,4.211c-1.232,0.615-3.416,1.291-3.362,3.195c-2.75,0-5.216-0.506-7.798-0.842
		c-1.174-1.01-1.963-2.693-3.701-2.412c-0.34-0.168-0.729-0.281-1.117-0.113c0.221,1.009-1.518,0.732-0.79,1.796
		c-0.953,0.396-0.613-1.177-1.288-1.515c0.114-0.504,0.728-1.287-0.115-1.512c-0.388-0.06-0.675,0.333-0.728,0.615
		c0.561,1.067-1.399,0.897-0.614,1.963c-0.335,0.168-0.786-0.279-0.842-0.615c0.11-0.619-0.843-0.955-0.335-1.63
		c0.221-0.108,0.221-0.501,0-0.669c-0.168-0.395-0.622-0.113-0.843,0c-0.45,0.501,0.393,1.738-0.843,1.624l-0.053,0.729
		c-1.124,0.281-0.56-1.178-1.403-1.458c0.053-0.56,0.953-1.235,0.111-1.626c-0.335,0-0.732,0.223-0.839,0.617
		c0,0.502-0.229,1.064-0.843,1.064l-0.053,0.897c-1.125,0.171-0.507-1.287-1.346-1.627c0.107-1.176,0.729-2.354,1.739-2.861
		c4.594,0.449,9.474-2.127,13.569,0.676c1.849-1.01,4.823,1.178,5.776-1.572l0.397-1.683c0.609,0.452,1.174,1.122,1.792,1.458
		c0.503-0.449,0-0.951-0.053-1.399c-0.507-1.35-0.9-2.694-1.068-4.205C304.358,49.74,304.75,50.858,305.589,51.365z M323.089,48.277
		c0.781-1.008,1.791-1.4,2.916-1.459c1.064,0.059,2.012,0.391,2.692,1.347c1.624,2.303-0.9,6.255,2.409,9.257
		c-0.785-0.227-1.399,0.221-2.131,0.168c-2.021-1.798-1.796-4.713-1.514-7.234c-0.168-0.507-0.393-1.123-1.01-1.403
		c-0.728-0.168-1.571,0-1.959,0.729c-0.058,0.447,0.053,1.178,0.609,1.29c0.229,0,0.397-0.225,0.507-0.393
		c-0.11-0.223-0.22-0.391-0.167-0.675c0.167-0.223,0.564-0.223,0.843-0.108c0.45,0.393,0.282,0.896,0.114,1.403
		c-0.56,0.616-1.35,0.783-2.131,0.616c-0.508-0.281-1.178-0.73-1.346-1.291C322.635,49.794,322.754,48.892,323.089,48.277z
		 M323.256,41.492c-4.372,0.56-10.603,4.713-13.912-0.449c-0.896-1.68-0.728-4.093,0.507-5.55c3.984-4.211,9.254,0.448,13.852-0.843
		c0.674-0.561,1.398-1.234,1.345-2.186l-0.053-1.123c0.56,0.783,0.613,2.133,0.167,3.029c-0.229,0.728-1.01,1.344-1.738,1.623
		c-3.984,0.623-7.629-2.41-11.499-0.615c-1.064,0.783-1.571,1.906-1.624,3.143c0,0.898,0.225,1.681,0.839,2.296
		c3.309,2.808,7.179-0.335,10.656-0.671c1.907-0.279,3.87,0.224,4.938,1.684c-0.168,0.278-0.504,0.559-0.728,0.783
		C325.163,42.052,324.32,41.437,323.256,41.492z M320,39.811c-2.185,0.335-4.259,1.626-6.504,0.951
		c-0.618-0.28-0.561-1.063-0.336-1.571c0.618-0.836,1.682-0.335,2.581-0.389L320,39.811z M325.273,37.398
		c-1.006,0.842-2.41,0.897-3.702,0.73c-3.31,0.055-6.619-2.75-9.646-0.449l-0.336,0.504c-0.167-0.504,0.115-1.566,0.949-1.854
		c4.381-2.074,12.228,4.881,13.578-2.914C326.62,34.763,326.452,36.445,325.273,37.398z M330.358,40.603
		c0.56-0.336,1.403-0.448,2.016-0.168c0.79,0.394,1.571,1.065,1.625,2.018c-0.054,3.424-1.51,5.962-1.289,9.815
		c0.143,2.396,0.393,4.15,1.068,6.057c-3.195-2.291-3.387-4.686-3.31-8.918c0.024-1.336-1.08-2.342-2.217-3.082
		c-0.88-0.575-1.768-0.34-2.606-0.396C327.38,44.307,329.012,42.454,330.358,40.603z M334.788,33.896
		c0.388,1.617,2.258,2.51,3.718,2.678c-1.288,1.178-1.682,3.368-3.649,3.703c-1.288,0.113-2.41-0.842-2.802-1.965
		C331.381,35.957,333.782,35.634,334.788,33.896z M334.273,51.665c0-3.785,0.961-7.59,2.847-10.748
		c0.904-1.519,1.943-2.555,1.943-2.555l-0.017-2.702c-1.064-0.059-2.135-0.477-2.892-1.345c-0.728-0.842-0.978-1.424-0.978-2.686
		c0-1.312,0.941-2.685,2.336-3.108c1.33-0.402,2.745-0.131,3.621,0.841c0.708,0.793,0.843,1.493,0.843,2.43
		c0,1.165-0.777,2.069-1.718,2.069c-0.585,0-1.259-0.131-1.648-0.843c-0.287-0.527-0.307-1.512,0.29-1.512
		c0.81,0,0.099,0.575,0.585,0.8c0.266,0.127,0.634,0.088,0.773-0.191c0.164-0.323,0.098-0.745-0.18-1.056
		c-0.397-0.452-0.937-0.528-1.509-0.335c-0.831,0.272-1.154,1.227-0.933,2.07c0.327,1.231,1.047,1.579,2.008,1.734l3.4,0.009
		l1.91-1.291l2.364-1.164c0,0-0.225-1.154-0.617-1.487l-2.913,1.553c-0.098-1.587-0.781-3.434-2.025-4.457
		c-1.244-1.013-3.375-1.512-5.29-0.691c-2.233,0.963-3.269,3.172-3.121,5.404c-1.514,1.911-4.655,3.536-3.31,6.397
		c-1.345,0.054-2.021,1.625-2.917,2.354l-1.796-1.458l1.457-1.011c1.289-1.516,1.963-3.702,1.182-5.663
		c-0.621-2.023-2.413-4.095-4.605-4.377c-1.003-0.221-1.959,0-2.688,0.616c-0.507,0.507-0.622,1.291-0.56,1.91
		c0.225,0.671,0.781,1.231,1.509,1.178c0.904-0.279-0.332-0.73,0-1.29c0.115-0.448,0.675-0.507,1.129-0.448
		c0.67,0.28,1.064,1.008,0.896,1.679c-0.225,0.56-0.842,0.955-1.403,1.067c-3.984-0.168-8.243-3.027-11.945-0.393
		c-2.074,1.009-3.142,3.142-3.367,5.272c-0.058,2.242,0.733,4.149,2.356,5.551c3.87,3.195,9.253,0.729,13.345-0.391
		c0.728-0.172,1.685-0.172,2.024,0.559c-1.738,1.629-3.645,3.367-3.763,5.722c-5.715-1.177-10.542-3.87-16.261-5.102
		c-0.675,0.056-0.842-0.788-1.015-1.179l2.135,0.73l0.11-0.172c-0.896-1.681-1.624-3.477-2.352-5.156
		c0.728,0.054,1.289,0.729,2.017,0.616v-0.34c-2.578-2.802-3.588-7.57-7.854-8.298c-0.106-0.843,0.396-1.571,0.34-2.354h-0.508
		l-4.148,1.176l-0.168-0.167c0.278-1.18,1.068-2.132,1.682-3.142c-0.339-0.505,0.508-0.788,0.226-1.403
		c-0.168-0.729-1.068-0.673-1.567-0.561c0.11-1.907-1.853,0.168-2.136-1.399c-0.392-0.281-0.953-0.113-1.288,0.168l-0.503-0.676
		c-0.454-0.112-1.011,0-1.289,0.168c-0.172-1.01-1.403-1.626-0.957-2.749c0.45-0.053,0.785,0.06,1.235,0.115
		c0.057-0.448,0.057-1.238,0-1.738l-1.457,0.055v-1.568c-0.622-0.058-1.129,0.164-1.796,0.11c0,0.506,0.279,1.123,0.279,1.683
		h-1.514c-0.058,0.561,0.11,1.119,0.167,1.683c0.503,0.056,0.953-0.452,1.46-0.112c0.335,1.178-0.56,1.852-0.728,2.802l-0.114-0.168
		c-0.45-0.053-0.843-0.168-1.183,0.168c-0.107,1.518-1.232-0.448-1.792,0.675c0.114,1.512-1.346-0.228-1.739,0.896
		c0.282,1.345-1.063,0.335-1.456,1.122c-0.503,0.616,0.446,1.176,0.168,1.738c1.006,0.729,1.796,1.906,2.131,3.03
		c-1.514-0.34-3.362-0.168-4.766-0.675c0.057,0.896,0.728,1.624,0.671,2.467c-2.639,0.675-4.316,3.31-4.934,5.775
		c-0.393,1.351-1.628,2.414-1.571,3.873c0.556,0.057,1.01-0.731,1.513-0.508c-0.45,2.023-1.685,3.702-1.853,5.836
		c0.561,0.393,1.293-0.843,2.021-0.843c-0.282,2.19,0,4.319-0.671,6.339c0.503,0.955,1.231-0.783,1.906-0.672
		c-0.058,0.725,0.221,1.627,0,2.3c-4.766,0.223-9.032,1.793-13.626,2.464c-1.743,0.674-1.799,2.752-2.413,4.209
		c-0.34,1.291,1.571,1.177,1.231,2.408c-7.457,0.059-14.583-1.008-21.702-1.68c3.195,2.467,6.619,4.488,10.097,6.339v0.168
		c-3.76,1.684-7.744,2.635-11.729,3.702c9.929,1.398,20.078,2.354,30.628,2.015c3.87-0.167,7.793-0.276,11.438-1.119
		c0.843-0.56,0.229-1.736,0.618-2.411c11.725,1.516,23.387,5.719,35.839,3.142c1.681,0,0.728-1.966,1.121-2.693
		c5.719,0.112,10.996,2.526,16.825,1.458c0.954,1.348,2.357,2.018,3.927,1.684c2.692-0.395,4.148-4.433,7.347-2.915
		c2.397,1.612,6.853,3.515,10.942,3.686l-1.624-1.718C340.389,70.729,334.273,60.89,334.273,51.665z"/>
	<path style="fill:#FFFFFF;" d="M299.874,67.006l-0.004-0.612l-3.06-0.506v0.728l0.295,0.047l0.017,2.702
		c-0.225,0.452-0.757,0.452-1.289,0.452c-1.153,0-0.731-4.152-0.731-4.152l-2.745-0.393l-0.004,0.663c0,0,0.343,0.1,0.507,0.18
		c0.107,1.403-0.335,3.027,0.954,3.925c0.895,0.561,2.274,0.849,3.44,0.269c0.049,0,0.38,0.4,0.38,0.4l2.123,0.286l0.016-0.686
		l-0.405-0.104l0.021-3.25L299.874,67.006"/>
	<path style="fill:#FFFFFF;" d="M290.012,68.388c-0.492,0.142-1.645-0.025-1.645-0.025l0.004-1.408c0,0,0.5,0.076,0.659,0.256
		c0.246,0.277,0.434,0.643,0.912,0.475c-0.069,0,0.021-1.579-0.02-1.606c-0.168-0.108-0.602-0.08-0.655,0.203
		c-0.278,0.166-0.949,0-0.949,0v-1.219c0,0,1.632-0.035,2.136,0.676c0.225,0.314,0.339,0.923,0.339,0.923l0.777,0.05l-0.225-1.721
		l-5.649-1.047v0.631l0.601,0.193l-0.021,3.256l-0.63-0.098v0.678l5.473,1.039l0.614-1.679l-0.728-0.28
		C290.759,68.058,290.408,68.275,290.012,68.388"/>
	<path style="fill:#FFFFFF;" d="M317.759,63.169l-0.02,1.942l0.363-0.028c0,0,0.336-0.57,0.679-0.751c0.209-0.108,0.949,0,0.949,0
		v3.302l-0.679-0.008v0.561l3.195,0.562l0.013-0.444l-0.573-0.34l-0.012-3.309c0,0,0.613,0.092,0.781,0.301
		c0.271,0.344,0.675,1.07,0.675,1.07l0.532,0.008l-0.012-1.895L317.759,63.169"/>
	<path style="fill:#FFFFFF;" d="M315.681,66.787c-0.757,0.457-1.845,0.057-1.845,0.057l0.02-1.104c0,0,1.019-0.191,1.019,0.295
		l0.475,0.024l0.012-1.439l-0.495-0.003c0,0-0.237,0.638-1.108,0.494v-1.31c0.503-0.228,1.047-0.288,1.591,0.013
		c0.434,0.242,0.79,1.006,0.79,1.006l0.552,0.004l-0.336-1.738l-5.44-0.013v0.741l0.622,0.111v3.139l-0.565,0.227l0.021,0.523
		l5.421,0.039l0.446-1.404l-0.736-0.102C316.122,66.347,315.893,66.663,315.681,66.787"/>
	<path style="fill:#FFFFFF;" d="M281.327,63.701l0.65,0.336l-0.02,3.207c-0.168,0.114-0.654-0.045-0.654-0.045l-0.074,0.582
		c0,0,3.403,0.678,3.403,0.633v-0.633l-0.523-0.154v-3.339l0.618-0.026V63.76l-3.399-0.643V63.701"/>
	<path style="fill:#FFFFFF;" d="M325.388,57.31l-0.393-0.789l-8.415-1.514l0.339,0.504C319.665,56.24,322.528,56.974,325.388,57.31"
		/>
	<path style="fill:#FFFFFF;" d="M325.498,59.048l0.507-0.676c-3.816-0.615-7.629-1.291-11.331-2.133l0.339,0.449
		C318.429,57.702,321.907,58.599,325.498,59.048"/>
	<path style="fill:#FFFFFF;" d="M324.766,55.511c-0.053-0.275,0.061-0.729-0.274-0.837c-2.078-0.286-4.324-0.507-6.23-0.787
		l0.282,0.338C320.561,54.783,322.696,55.29,324.766,55.511"/>
	<path style="fill:#FFFFFF;" d="M362.106,32.636c-4.013,1.066-9.188,1.096-13.172,0.028l0.008-1.196
		c3.649-1.522,9.475-1.488,13.164-0.194V32.636 M347.735,30.206l-0.364,0.127c1.01,0.896,0,2.352,1.178,3.141
		c4.152,1.289,9.479,1.064,13.63-0.059c1.514-0.616,0.066-2.443,1.191-3.339C358.482,28.295,352.501,28.354,347.735,30.206z"/>
	<path style="fill:#FFFFFF;" d="M350.166,22.017c-0.745,0.423-0.704,0.746-0.745,1.039c-0.057,0.382,0.486,1.035,0.486,1.035
		s-0.777-0.2-1.021,0.017c-0.569,0.5-0.385,0.91-0.336,1.513c0.024,0.348,0.277,0.506,0.508,0.729
		c0.33-0.319,0.49-0.415,1.238-0.449c0.222,0.733-0.094,1.624-1.006,1.911c-1.035,0.325-1.452-0.194-1.804-0.902
		c0.278-0.221,0.38-0.264,0.994-0.36l-0.941-1.992l-1.064,0.892l-0.356-0.583l-0.131-0.645
		C347.053,23.432,348.931,22.352,350.166,22.017 M360.649,22.017c-1.23,0.034-1.361,0.971-1.164,1.751
		c-0.279-0.171-0.877-0.581-1.343-0.221c-0.638,0.484-0.466,1.415-0.245,2.031c0.357-0.356,0.879-0.332,1.329-0.16
		c-0.098,0.742-0.417,1.487-1.616,1.521c-1.39,0.037-1.383-1.21-1.328-1.491c0.334-0.055,0.548,0.033,0.973,0.164
		c-0.229-0.746-0.196-1.685,0.032-2.397h-0.973l0.261-1.26h-2.589l0.226,1.293c-0.409,0.01-0.696-0.012-1.008,0
		c0.394,0.775,0.564,1.722,0.226,2.317c0.393-0.051,0.682,0.012,0.973-0.117c0.115,0.448-0.126,1.52-1.161,1.62
		c-0.974,0.088-1.526-0.457-1.612-1.391c0.414-0.196,0.639-0.196,1.055-0.032c0.119-0.101,0.378-0.412,0.328-0.712
		c-0.09-0.571-0.065-1.127-0.65-1.334c-0.45-0.157-1.031,0.231-1.031,0.231s0.087-0.792-0.068-1.135
		c-0.148-0.331-0.582-0.644-1.035-0.679C353.204,21.016,357.513,20.723,360.649,22.017z M364.478,23.994l-0.33,1.132
		c-0.418-0.324-0.568-0.457-0.853-0.737l-1.009,1.904c0.307,0.059,0.765,0.08,0.985,0.419c-0.449,0.775-1.166,1.227-1.939,0.904
		c-0.969-0.401-0.843-1.133-0.684-1.943c0.582,0,0.814,0.131,1.008,0.423c0.294-0.293,0.937-0.876,0.645-1.651
		c-0.15-0.401-0.928-0.503-1.264-0.388c0.426-0.679,0.52-1.487-0.285-1.974C361.983,22.478,363.358,23.206,364.478,23.994z
		 M344.177,24.479l-0.229,0.243c1.517,1.346,2.36,3.029,3.088,4.713c5.049-1.852,11.834-2.019,16.769-0.112
		c0.449-1.011,0.727-2.02,1.402-2.915c0.389-0.675,1.513-1.851,1.513-1.851l-0.305-0.239c0,0,0.44-0.383,0.475-0.718
		c0.067-0.677,0.225-1.344-0.228-1.738c-0.559-0.333-1.286-0.28-1.795-0.112c0-0.448-0.109-0.896-0.445-1.231
		c-0.564-0.616-1.46-0.113-1.967,0.055c0-0.503-0.222-0.843-0.614-1.178c-0.561-0.28-1.289-0.053-1.738,0.335
		c-0.222-0.335-0.336-0.783-0.728-1.063c-0.561-0.448-1.402-0.06-1.792,0.225l-0.351-1.092l-0.626-1.475l-0.225-1.458l1.983,0.486
		v-2.745l-1.983,0.511l0.388-2.811l-3.01-0.003l0.389,2.814l-2.136-0.511v2.745l2.136-0.486l-0.241,1.618l-0.528,1.408l-0.282,1.11
		c-0.393-0.282-0.789-0.503-1.35-0.448c-0.672,0-0.897,0.729-1.121,1.176c-0.393-0.335-0.897-0.56-1.461-0.447
		c-0.671,0.171-0.896,0.899-1.117,1.403l-0.393-0.28c-0.618-0.114-1.403-0.114-1.681,0.56c-0.339,0.227,0.221,1.236-0.454,0.956
		c-0.613-0.34-1.403-0.06-1.738,0.502C343.244,23.139,343.629,24.154,344.177,24.479z"/>
	<path style="fill:#FFFFFF;" d="M350.681,32.685l1.85,0.273l0.34-0.219c1.796-0.221,3.566-0.264,5.42-0.041l0.225,0.293l1.686-0.327
		C357.394,31.768,353.528,31.76,350.681,32.685"/>
	<path style="fill:#FFFFFF;" d="M299.08,61.288c1.968,0.172,4.1-0.276,6.116-0.39c1.461-0.674,1.399-2.806,1.064-4.15
		c-0.163,0-0.331,0.113-0.446,0.166c-0.335,1.068,0.167,2.582-0.957,3.197l-5.661,0.674L299.08,61.288"/>
	<path style="fill:#FFFFFF;" d="M324.766,60.671c0.229-0.221,0.168-0.561,0.282-0.783c-3.53-0.561-7.065-1.067-10.432-1.963
		c0,0.167,0.115,0.339,0.283,0.447C318.041,59.441,321.404,60.111,324.766,60.671"/>
	<path style="fill:#FFFFFF;" d="M399.401,67.244c0,0,1.344,0.043,1.698,0v-0.531h-0.438V64.48l2.85,3.146l0.79,0.008v-4.126h0.39
		v-0.634l-1.552-0.045v0.583h0.43l0.005,1.26l-2.027-1.923l-2.745-0.059l0.067,0.625h0.972l0.027,3.3l-0.417,0.047L399.401,67.244"
		/>
	<path style="fill:#FFFFFF;" d="M395.83,67.123c-0.655,0.121-1.042-0.556-1.137-1.626c-0.102-1.129-0.602-2.265,0.629-2.356
		c0.922-0.067,0.902,0.984,1.024,1.824C396.489,65.984,396.541,66.986,395.83,67.123 M395.662,62.638
		c-0.899,0.111-1.798,0.22-2.412,0.95c-0.617,0.56-0.842,1.403-0.617,2.244c0.167,0.729,0.727,1.231,1.346,1.626
		c1.01,0.34,2.298,0.279,3.194-0.168c1.234-0.615,1.571-2.074,1.124-3.254C397.737,63.026,396.726,62.578,395.662,62.638z"/>
	<path style="fill:#FFFFFF;" d="M409.457,60.003c-0.277,0-0.56,0-0.617,0.275c0.22,0.9-0.223,2.299,0.617,2.975
		c2.3,0.393,4.545,0.955,6.561,2.073c0.168,0.112,0.734,0.285,0.677-0.167c-1.796-1.399-3.986-2.188-6.227-2.582
		C409.289,62.242,410.185,60.671,409.457,60.003"/>
	<path style="fill:#FFFFFF;" d="M450.564,70.373c0.845-0.279,2.245-0.447,2.975-1.398c-0.052-1.684-0.674-3.31-0.616-5.049
		c4.71-0.111,9.423-0.56,14.073-0.953c-2.298,1.684-5.047,2.64-7.625,3.814c2.076,1.347,4.881,1.963,7.348,2.917
		C461.504,70.32,456.005,70.768,450.564,70.373 M445.07,69.984c-0.056-0.675-0.56-1.63-0.11-2.019
		c2.468-0.228,5.16-0.28,7.343,0.503c-0.167,0.729-1.121,0.506-1.623,0.841C448.884,69.589,446.978,69.872,445.07,69.984z
		 M428.471,70.488c0-1.853,2.578-0.951,3.143-2.635c0.22-0.898,0.104-1.965-0.45-2.693c-1.686-1.794-4.153-0.223-6.169-0.168
		l-1.012-0.676c8.637-1.01,16.319-4.708,25.518-4.037c0.844,0.225,1.793,0.452,2.3,1.348c0.168,1.852,0.058,3.87,0.56,5.664
		C443.893,65.72,436.264,68.916,428.471,70.488z M427.404,65.384c0.502-0.28,1.177-0.058,1.626,0.227
		c0.787,0.671,1.179,2.575-0.058,3.082C428.973,68.694,427.464,65.4,427.404,65.384z M424.375,62.298h0.337v0.059h-0.337V62.298z
		 M425.891,71.664c-1.458,0.787-3.029-0.053-4.543-0.108c-2.02-0.28-4.209-0.62-6.057,0.28c-1.456-0.561-2.859-1.348-4.206-2.299
		c0.672-1.291,2.295-1.35,3.699-1.463c1.968,0.62,3.591,2.246,6.057,1.63c0.561,0.054,1.121-0.114,1.346-0.675
		c-0.669-1.063-2.016-1.01-3.029-1.344c-3.866-0.842-7.009-3.369-11.271-3.197c-1.292-1.462-0.335-3.703-0.502-5.555
		c0.277-0.393,1.176-0.841,0.727-1.403c-0.167-0.335-0.622-0.22-0.842-0.108l-1.849,1.178c0.058,0.561,0.168,1.177,0.11,1.68
		c-1.236-0.223-2.692-0.671-4.153-0.671c-0.388-1.176,1.294-0.227,1.184-1.29l0.335-4.266c-0.058-0.836-1.404-0.615-0.727-1.564
		c0.392,0.054,0.946,0.389,1.286,0l2.41-3.931c0.114-0.448-0.22-0.841-0.502-1.009l0.56-0.615c0.616,1.063,1.795,0.053,2.694,0.053
		c0.896-0.615,3.085,0.115,2.857-1.679v-0.226l1.014-0.168c-0.057,0.788-0.119,1.904-0.731,2.355
		c-1.454,0.523-3.706,0.125-5.083,0.811l-1.196,2.107c3.082-0.787,6.671-0.732,9.703-1.738c3.133,1.232,6.39,2.241,9.364,4.039
		c-1.122,1.512-0.505,3.363-0.28,5.154c-0.114,2.021-1.238,3.645-2.694,5.049c-1.289-1.231,0.898-2.131,1.009-3.363
		c0.282-0.728,0.561-1.965-0.167-2.58c-1.119,0.055-0.283,1.457-0.79,2.018c-0.387,0.956-1.116,1.686-1.341,2.637
		c-0.672-0.168-1.347-0.899-1.738-1.458c-0.335-0.73,0.954-1.571-0.058-2.074c-1.069,0.843-2.019,2.074-3.305,2.523
		c-0.169,0.168-0.282,0.393-0.169,0.56c0.781,0.898,1.74-0.392,2.52,0.617c2.917,2.244,5.662,4.937,8.919,6.395
		C427.459,69.197,426.397,70.544,425.891,71.664z M407.608,66.843c0-0.561,0.617-0.676,1.009-0.784
		c1.85-0.284,3.14,0.727,4.653,1.231c-1.122,0.228-2.186,0.675-3.14,1.459C409.122,68.527,408.165,67.798,407.608,66.843z
		 M406.147,71.723c0.392-0.28,1.068-0.508,1.294-1.067l-0.058-1.347c0.559,0.508,1.176,0.895,2.016,0.895
		c0,0.618,0.731,1.123,1.126,1.351L406.147,71.723z M399.309,71.215l-0.225-1.791c2.463-0.168,4.933,0.112,7.063,1.063l-0.058,0.225
		C404.017,71.387,401.606,71.387,399.309,71.215z M381.528,69.704c0.672-1.403,1.966-2.806,3.14-4.092
		c0.143,0.1,0.457,0.468,0.457,0.468v2.188l-0.422,0.051l-0.035,0.544l1.673-0.013l0.008-0.495l-0.442-0.087l-0.005-1.313
		l1.684,1.795l1.623-2.426l0.24,1.554c0,0-0.295,0.108-0.52,0.142c-0.053,0.281,0.032,0.638,0.032,0.638l3.062-0.536l-0.101-0.826
		c0,0-0.399,0.108-0.526,0.108l-0.442-2.974l0.537-0.142l-0.095-0.81l-1.961,0.336l-1.233,2.521l-2.054-2.195l-0.529,0.009
		l0.34-0.843c6.111-0.668,12.562-2.803,18.896-1.008c0.542,0.232,0.867,0.576,1.052,0.987c0.612,1.383-0.319,3.562,0.24,5.068
		c0.058,0.28,0.167,0.508,0.109,0.843C397.905,66.227,389.992,71.161,381.528,69.704z M380.237,68.187
		c-0.277-0.951-1.179-2.354-2.358-2.915c-1.061-0.503-2.522-0.335-3.472,0.112c1.846-2.58,3.252-7.515,7.568-6.336
		c1.012,0.333,1.905,1.402,2.021,2.411C384.61,64.488,380.853,65.72,380.237,68.187z M378.608,70.995
		c-0.617,0.729-1.514,1.009-2.468,0.841c-0.727-0.225-1.124-0.841-1.398-1.463c-0.115-0.556,0.055-1.116,0.562-1.344
		c0.334-0.055,0.727,0.056,0.784,0.396c0.109,0.393-0.564,0.841,0.052,1.063c0.395,0.057,0.734-0.394,0.787-0.73
		c0.115-0.729-0.279-1.403-0.954-1.684c-0.56-0.168-1.231-0.055-1.685,0.395c-0.555,0.393-0.503,1.068-0.555,1.625
		c-0.845-0.729-1.853-1.065-2.86-1.065c1.849-1.626,3.702-3.59,6.337-2.97c0.897,0.39,1.905,1.344,1.958,2.354
		C379.23,69.365,379.115,70.265,378.608,70.995z M377.122,43.155c-0.052-0.843,0.192-1.897,1.037-2.561
		c0.744-0.579,1.519-0.896,2.36-0.503l5.494,5.664c-1.628-0.393-3.196,0.109-4.315,1.514c-1.968,2.471,0.392,6.45-1.738,8.917
		l-1.969,1.906C379.508,53.269,379.001,47.427,377.122,43.155z M376.421,39.867c-1.624-0.562-2.144-1.827-3.437-3.445
		c1.288-0.172,2.597-1.1,3.156-2.391c0-0.223,0.173-0.336,0.173-0.557c1.456,1.457,4.48,3.25,2.52,5.604
		C378.159,39.639,377.377,40.202,376.421,39.867z M399.753,40.202c1.069-0.897,1.687-2.073,1.404-3.422
		c0.114-1.119-1.122-1.849-1.738-2.464c-3.927-1.576-7.631,1.398-11.667,0.729c-0.839-0.396-1.514-1.291-1.514-2.246v-0.167
		c0.508,0.842,1.347,1.457,2.355,1.457c4.373-0.281,10.545-3.872,13.742,0.896c0.611,1.064,0.727,2.635,0.335,3.87
		c-0.282,1.179-1.347,2.245-2.355,2.86c-5.27,2.582-10.323-3.533-15.256,0.336l-0.674-0.56
		C388.762,36.724,394.596,42.781,399.753,40.202z M399.139,38.856c0.055,0.507-0.564,1.011-1.009,1.065
		c-2.413,0.338-4.713-0.391-7.011-0.898c2.407-0.502,4.817-1.511,7.346-1.008C398.856,38.128,399.026,38.521,399.139,38.856z
		 M383.714,36.05v-0.168c4.603,3.536,9.646-0.561,14.583-0.109c1.122,0.336,2.073,1.459,1.679,2.748
		c-0.17-0.674-0.892-1.349-1.621-1.517C393.417,36.389,387.306,41.378,383.714,36.05z M387.245,47.101
		c0.564,0.447,1.071,1.123,1.291,1.851c0.11,0.896-0.22,1.626-0.839,2.187c-0.452,0.56-1.233,0.616-1.963,0.448
		c-0.449-0.108-0.842-0.675-1.009-1.123c-0.058-0.448,0.167-0.896,0.56-1.009c1.063-0.279,0.167,1.684,1.288,0.9
		c0.225-0.394,0.11-1.008-0.167-1.403c-0.393-0.395-1.121-0.615-1.681-0.335c-1.796,1.231-0.17,3.417-0.562,5.271
		c-0.114,1.349-0.727,2.467-1.798,3.423c-0.609-0.229-1.456-0.229-2.07,0c1.848-2.02,1.681-5.108,1.57-7.798
		c0.11-0.955,0.727-1.796,1.456-2.411C384.556,46.485,386.014,46.485,387.245,47.101z M400.315,54.615l1.124,0.06l-0.23,2.855
		l-1.116-0.108L400.315,54.615z M401.884,50.187c0.561-0.675,0.787-1.516,1.347-2.19l0.901,0.561
		c-0.395,0.897-0.847,1.686-1.404,2.468C402.445,50.802,401.491,50.69,401.884,50.187z M409.624,44.184
		c0.34,0.114,0.225,0.671,0.34,1.011c-0.842,0.447-1.799,0.507-2.748,0.729c-0.17-0.336-0.225-0.784-0.17-1.124L409.624,44.184z
		 M417.983,45.923c0.449,0.227,0.951,0.113,1.066-0.394c-0.229-1.686,1.289-3.029,1.623-4.655c1.236,0,2.353-0.84,2.918-1.959
		c0.225-0.732,0.449-1.743,0.058-2.471c-0.168-0.168-0.455-0.451-0.622-0.115c-0.165,0.955-0.558,2.191-1.679,2.473
		c-1.738,0.616-3.701,0-5.439-0.281c-1.629,0.395-3.42,0.335-4.601,1.738c-0.447,0.395-1.236,0.223-1.684-0.113
		c-0.277-0.225-0.617-0.674-0.167-0.896c0.561-0.394,1.57,0.054,2.018-0.675c0.115-0.615-0.337-1.123-0.896-1.344
		c-1.121-0.676-2.803,1.904-2.75-0.452l0.225-1.566c0.507,0.333,1.294,0.56,1.851,0.333c0.34-0.112,0.675-0.501,0.507-0.841
		c-0.507-0.951-1.179,0.058-1.851,0c0.112-0.729,1.064-0.783,1.626-1.063c2.184-0.336,4.261-1.069,5.832-2.861
		c1.461-0.448,3.14,0.727,4.488-0.281c0.505-1.177,1.456-2.301,2.688-2.917c0.172,1.403,0.847,3.197-0.332,4.373
		c0.165,0.336,0.619,0.395,1.007,0.227c0.396-0.227,0.396-0.675,0.564-1.069c3.929,2.36,5.327,6.679,4.598,11.106
		c-0.56,2.078-1.124,4.15-2.24,6.004c-0.058,0-0.393-0.616-0.787-0.563c0.165-0.393,0.225-1.177-0.225-1.512
		c-0.847,0-1.119,1.23-2.078,0.836c-0.277,0.283-0.444,0.562-0.444,0.902c0.167,0.221,0.444,0.108,0.612,0.389
		c0.057,0.507-0.388,0.787-0.779,0.898c-0.62,0.057-1.236-0.283-1.404-0.898c-0.062-0.28-0.167-0.783,0.058-0.951
		c0.387,0.114,1.064,0.898,1.177,0c0-0.561,1.064-1.176,0.17-1.57l-0.677-0.168c0.114-0.338,0.561-0.506,0.507-0.953
		c-0.622-0.336-1.177-0.676-1.908-0.73c-0.28,0.227-0.17,0.562-0.17,0.896c-0.393,0.168-0.56-0.447-0.957-0.333
		c-0.275,0.561-0.499,1.235-0.667,1.852l1.007,0.335c-0.392,0.56-1.066,0.955-1.681,0.787c-0.335-0.227-0.84-0.394-0.954-0.843
		C417.478,46.318,417.703,45.978,417.983,45.923z M420.673,25.337c0.845-1.063,2.076-1.959,3.195-2.407
		c0,2.072-1.682,3.585-3.31,4.653C420.004,26.968,420.448,26.013,420.673,25.337z M428.581,24.049c0,2.131-2.298,3.31-2.918,5.214
		c-0.444-0.108-0.502-0.669-0.669-1.008C424.712,26.013,427.01,24.949,428.581,24.049z M432.51,26.741
		c-0.452,2.522-3.364,2.694-4.603,4.6c-0.502,0-0.447-0.56-0.614-0.841C427.739,27.978,430.601,27.583,432.51,26.741z
		 M436.096,31.001c-1.79,1.631-4.431,1.851-6.671,2.358c-0.337-0.168-0.17-0.675-0.115-0.955
		C430.996,30.726,433.685,31.173,436.096,31.001z M437.495,35.322c-1.739,1.234-4.541,0.955-6.727,0.729
		c-0.449-0.168-0.335-0.672,0-0.952C432.844,33.754,435.367,34.986,437.495,35.322z M437.782,39.418
		c-2.078,0.559-5.163,0.841-6.677-0.843c-0.057-0.393,0.34-0.561,0.612-0.729C433.91,37.96,435.876,38.576,437.782,39.418z
		 M436.88,43.289c-2.188,0.615-4.54,0.055-5.884-1.739c-0.058-0.339,0.22-0.561,0.502-0.62
		C433.576,41.157,435.09,42.613,436.88,43.289z M430.486,44.967c-0.109-0.168,0-0.448-0.053-0.669
		c0.275-0.282,0.84-0.227,1.18-0.059l3.586,2.693C433.294,47.101,431.718,46.371,430.486,44.967z M429.425,47.997
		c-0.115-0.389-0.337-0.895-0.058-1.344c0.277-0.056,0.45-0.056,0.732,0l2.744,3.534C431.498,50.015,430.267,49.119,429.425,47.997z
		 M427.906,50.802c-0.167-0.392-0.053-0.954,0.34-1.008c1.289,0.393,1.738,2.02,2.803,2.803
		C429.817,52.708,428.471,51.925,427.906,50.802z M425.663,50.295c-0.225-0.108-0.502-0.108-0.669-0.393
		c-0.062-0.335,0.11-0.671,0.393-0.784c0.276-0.055,0.616,0,0.616,0.336C426.115,49.794,425.836,50.075,425.663,50.295z
		 M433.121,59.101c0.896,0,1.801,0,2.415,0.62c-3.421,1.01-6.955,1.849-10.605,2.409C427.629,61.514,430.319,60.003,433.121,59.101z
		 M464.252,66.73c3.479-1.906,6.955-4.039,10.098-6.619c-7.014,1.009-13.8,1.739-21.202,1.684c-0.562-0.168-0.115-1.063-0.452-1.458
		c-1.958-2.859-6.389-2.018-9.646-1.904c-2.246-0.228-4.934,2.353-6.504-0.395c-1.01-0.895-2.466-0.727-3.812-0.843
		c-2.415,0.562-4.599,2.019-7.014,2.413c0.729-1.626,0.115-3.536,0-5.272c0.058-0.391,0.115-0.843,0.507-1.011
		c0.897,1.626,2.578,2.467,4.259,2.358c0.058-0.619-0.895-1.068-1.009-1.684c1.519,0.675,3.592,0.053,5.048,0.841
		c-0.053-1.235-1.682-2.299-2.354-3.142c1.347,0,2.468,0.056,3.584,0.227c-0.389-1.402-1.508-2.807-2.462-3.701l2.582,0.053
		c0.784-0.112,1.738,0,2.466-0.112c-0.508-1.347-1.911-2.522-3.143-3.083l2.468-0.335c0.731-0.335,1.854,0.053,2.522-0.335
		c-1.061-1.517-2.694-2.359-4.203-3.146l3.701-1.006c0.502,0,1.236,0.11,1.514-0.113c-1.066-1.458-2.692-2.131-4.209-2.693v-0.113
		c0.842-0.167,1.459-0.895,2.193-1.346c0.502-0.333,1.284-0.279,1.618-0.78c-1.341-1.237-3.19-1.459-4.928-1.907v-0.171
		c1.116-0.671,2.016-1.739,3.138-2.41V30.5c-1.738-1.123-4.092-1.123-6.227-1.065c0.564-0.673,0.898-1.403,1.064-2.191
		c0.285-0.729,0.899-1.345,1.182-1.96c-1.853-0.336-3.702,0.168-5.33,0.841l0.954-3.815l-0.17-0.11
		c-1.848,0.055-3.587,1.006-5.1,2.016c-0.115-1.286,0.392-2.356,0.616-3.364c-1.514,0.112-2.81,0.675-4.094,1.348
		c-1.686,0.898-3.477,2.409-3.257,4.487c-0.109,0.109-0.444,0.054-0.387,0.336c0.612,0.448,0.784,1.288,0.951,1.906
		c-0.507-0.336-0.903-0.898-1.009-1.458c-0.395-0.675-1.179-1.29-2.022-0.898c0.337,0.395,0.786,1.119,0.786,1.738
		c-1.007-0.505-0.954-1.624-1.738-2.298c-0.392-0.226-1.007-0.394-1.398-0.113l0.727,1.236l-0.115,0.167
		c-1.066-0.507-0.894-1.684-1.848-2.245c-0.335-0.281-1.124-0.281-1.403,0c0.279,0.507,0.844,1.01,0.786,1.571
		c-1.289-0.503-1.681-3.251-3.477-2.299c0.392,0.393,0.895,0.788,0.895,1.29c-1.122-0.282-1.174-1.513-2.016-2.073
		c-0.45-0.168-1.012-0.395-1.352-0.114c0.34,0.335,0.622,0.729,0.562,1.124c-0.781-0.114-0.729-0.957-1.343-1.35
		c-0.335-0.557-1.01-0.839-1.682-0.616c0.168,0.34,0.562,0.728,0.505,1.064c-0.73-0.336-0.672-1.454-1.629-1.626
		c-0.334,0.059-0.672,0.395-0.561,0.843c0.227,0.394,0.561,0.728,0.954,0.896c1.681-0.276,2.47,1.63,4.208,1.235
		c0.73,0.785,1.626,1.178,2.745,1.123c0.734,0.616,1.571,1.065,2.641,0.951c0.784,1.35,2.58,0.114,3.361,1.571
		c0.619,0.562,2.021-0.113,2.19,0.842h-0.17c-2.073-1.063-3.587,0.675-5.157,1.624c-1.911,0.843-4.379,0.73-5.835,2.413
		c-0.282,1.739-1.124,3.812-0.112,5.496c0.225,0.168,0.732,0.227,0.507,0.676l1.906,2.074c0.614,0.505,1.57,0.335,2.353,0.279
		c1.966-1.458,4.825-2.241,7.178-1.01c-0.167,0.787-0.387,1.738-1.341,2.021c-0.34,0.226-0.173,1.009-0.845,0.728
		c-0.619,0-0.841,0.676-0.841,1.177l0.616,0.228c0.225,0.279,0.225,0.561,0,0.783c-0.334,0.393-0.898,0.393-1.344,0.28
		c-0.504-0.222-0.959-0.784-0.728-1.403c0.276-0.056,0.446,0.395,0.728,0.227c-0.057-0.67,0.335-1.123,0.335-1.682l-0.787-0.111
		c0-0.394,0.508-0.728,0.395-1.123c-0.562-0.225-1.347-0.168-1.966-0.058l-0.22,1.292l-1.571,0.168
		c-0.287-0.225-0.167-0.728-0.617-0.84l-3.759,0.783c-0.677,0.057-1.568,0.561-1.121,1.402c-0.733,0.616-1.571,2.694-2.75,1.404
		c-0.954,1.062-1.629,2.521-2.523,3.697c-0.447,0.508-0.17,1.35,0.449,1.518c0,0.616-0.282,1.176-0.561,1.684
		c-0.45-0.059-0.895,0-1.119,0.389l-0.34,4.659c0.168,0.501,0.732,0.39,1.061,0.616c-0.053,0.221,0.115,0.56-0.104,0.728
		c-4.881-0.112-9.146,1.403-13.8,1.512c-0.396-1.063-0.842-2.239-1.853-3.027c1.351-1.29,1.743-3.028,2.023-4.768
		c1.568,0.112,2.857-0.389,3.869-1.684c3.194,0.113,6.726,0.452,9.865-0.276l-0.167-0.167c-0.555-0.508,0.114-0.955,0.167-1.403
		c-3.079,0.28-6.331,0.28-9.421,0c0.397-2.917-2.465-4.487-4.089-6.394c0.335-0.337,0.728-0.56,1.116-0.787
		c3.984-0.335,7.241,1.966,11.332,1.459c2.413-0.336,5.163-1.964,5.774-4.541c0.505-2.078,0.45-4.6-1.007-6.225
		c-2.632-3.029-7.235-2.753-10.765-1.853c-1.685,0.223-4.153,1.514-5.441-0.34c-0.559-0.781-0.282-2.019-0.06-2.802
		c-0.781-0.112-1.232,0.618-1.74,1.011c-1.232,1.626-0.895,4.037-0.272,5.723c-1.236-0.396-1.911-1.686-2.303-2.753h-0.112
		c-0.675,1.234-0.282,2.921,0.17,4.152c0.616,1.402,2.245,2.299,3.361,2.746c-1.007,0.228-1.849,0.955-2.635,1.403
		c-0.444-0.28-0.727-0.955-1.179-1.403c-0.393-0.615-1.741-0.389-1.401-1.176c0.842-2.581-1.626-4.093-3.255-5.664
		c-0.297-2.178-1.605-5.015-4.314-5.722c-2.125-0.553-4.063-0.301-5.441,1.403c-0.917,1.131-1.18,2.246-1.01,3.59
		c-1.121-0.393-2.132-1.236-3.309-1.344c-0.225,0.448-0.246,1.019-0.074,1.58c1.713,0.582,3.265,1.555,4.528,2.459h2.979
		c0.629-0.089,1.156-0.248,1.599-0.789c0.512-0.635,0.684-1.331,0.334-2.073c-0.322-0.685-0.642-1.068-1.631-1.068
		c-0.852,0-1.006,0.628-1.006,1.236c0,0.527,0.257,0.616,0.564,0.562c0.307-0.059,0.14-0.482,0.334-0.73
		c0.128-0.162,0.263-0.372,0.447-0.28c0.335,0.168,0.475,0.42,0.564,0.783c0.155,0.68-0.327,1.211-0.956,1.518
		c-0.75,0.36-1.469,0.065-2.076-0.507c-0.757-0.712-0.704-1.644-0.392-2.634c0.302-0.96,0.816-1.505,1.738-1.907
		c1.238-0.544,2.327-0.239,3.424,0.56c1.509,1.107,2.104,2.991,1.231,4.655c-0.674,1.284-1.849,2.018-3.199,1.904v2.521
		c4.038,4.827,5.072,9.422,5.072,13.565c0,9.576-6.311,19.486-18.417,21.425l-1.555,1.684c4.325-0.168,8.224-1.746,11.705-3.974
		c3.701-1.459,5.048,3.985,8.749,2.915c1.064-0.222,2.021-1.232,2.692-2.188c2.073,0.34,4.315,0.563,6.561,0.34
		c3.866-0.172,7.405-1.516,11.159-1.402c0.055,0.782-0.115,1.738,0.449,2.298c4.599,1.119,10.04,1.233,14.921,0.672
		c1.176,0.339,2.633,0.734,3.759-0.056c2.572-0.448,4.933,0.45,7.458,0.503c1.233,0.287,2.073-0.389,2.69-1.119
		c5.328-1.344,10.6-2.859,16.098-3.646c0.73,0.058,0.279,1.235,0.504,1.796c0.615,1.01,1.906,0.896,2.918,1.178
		c9.812,0.896,20.018-0.055,29.444-1.57C472.329,69.309,468.123,68.354,464.252,66.73z"/>
	<path style="fill:#FFFFFF;" d="M385.959,57.195l7.065-1.457c0.617-0.335,1.738-0.114,1.964-0.897
		c-2.803,0.503-5.553,1.123-8.415,1.399C386.071,56.298,386.182,56.861,385.959,57.195"/>
	<path style="fill:#FFFFFF;" d="M385.959,58.933c3.252-0.615,6.449-1.176,9.533-2.072c0.392-0.172,1.004-0.172,0.952-0.789
		c-3.529,1.123-7.461,1.35-11.045,2.192L385.959,58.933"/>
	<path style="fill:#FFFFFF;" d="M396.392,58.318l0.225-0.393c-3.31,0.729-6.9,1.234-10.268,1.851l0.282,0.675
		C389.94,59.831,393.25,59.328,396.392,58.318"/>
	<path style="fill:#FFFFFF;" d="M386.684,54.674l-0.053,0.669c2.078-0.279,4.091-0.729,6.06-1.291l0.225-0.389L386.684,54.674"/>
	<path style="fill:#FFFFFF;" d="M447.76,61.71l0.722,0.1v3.397l-0.497,0.063l0.021,0.468l2.899,0.319l0.008-0.511l-0.63-0.196
		l-0.097-3.398c0,0,0.379,0.139,0.579,0.292c0.229,0.177,0.177,0.566,0.177,0.566l0.457,0.163c0,0,0.006-1.149,0-1.165
		c-1.233-0.507-2.814-0.736-4.271-0.684l-0.04,1.622l0.43-0.066L447.76,61.71"/>
	<polyline style="fill:#FFFFFF;" points="446.98,65.064 446.528,65.048 446.156,61.811 446.753,61.742 446.581,61.12 
		443.557,61.459 443.611,62.022 444.06,61.962 444.511,65.272 444.06,65.439 444.118,65.999 447.03,65.644 446.98,65.064 	"/>
	<path style="fill:#FFFFFF;" d="M434.308,65.497c0.055,0.067-0.374-1.46-0.374-1.46s0.886-0.503,1.238,0.443
		C435.429,65.16,434.705,65.427,434.308,65.497 M436.783,63.898c-0.195-0.952-1.482-0.938-2.721-0.692
		c0.053,0.013-2.397,0.72-2.397,0.72l0.12,0.459l0.34-0.097l0.829,3.231l-0.287,0.409l0.177,0.427l2.355-0.556l-0.262-0.648
		l-0.192,0.049l-0.245-1.164c0,0,0.647-0.055,0.832,0.142c0.372,0.397,0.821,1.45,0.821,1.45l1.796-0.523l-1.448-1.655
		C436.501,65.448,437.085,65.372,436.783,63.898z"/>
	<path style="fill:#FFFFFF;" d="M441.091,66.167c-0.719,0.227-0.903-0.376-1.243-1.495c-0.314-1.026-0.72-2.043,0.095-2.282
		c0.842-0.243,1.193,0.914,1.426,1.759C441.688,65.304,441.836,65.935,441.091,66.167 M441.818,61.962
		c-1.015-0.28-2.188-0.168-3.027,0.393c-1.009,0.503-1.124,1.57-1.009,2.637c0.109,0.673,0.727,1.291,1.346,1.624
		c0.895,0.339,2.073,0.171,2.912-0.222c0.79-0.447,1.182-1.29,1.182-2.245C443.164,63.253,442.715,62.355,441.818,61.962z"/>
	<path style="fill:#FFFFFF;" d="M366.16,64.711l-0.449-0.114c0.22-0.281,0.842-0.336,0.674-0.837
		c-1.066-0.902-2.413-0.507-3.759-0.62l-0.225-0.168c0.561-0.617,1.57-0.281,2.299-0.281c0.336,0.059,0.729-0.281,0.507-0.616
		c-0.953,0.224-2.245,0.114-3.194,0.616c-0.225,0.227-0.115,0.507,0.053,0.73c1.179,0.168,2.802-0.395,3.698,0.505l-0.275,0.111
		c-1.463-0.616-3.14,0.393-4.544-0.336l0.225-0.447c-0.561-0.449-1.402-0.562-2.131-0.504c-0.282,0.336,0.221,0.839-0.113,1.231
		c-0.676,0-0.336-0.675-0.508-1.009l-0.781-0.055c-0.449,0.223-0.054,0.616-0.168,0.896c0.675,0.279,0.949,1.063,1.457,1.513
		c-0.222,0.285-0.676,0.841-0.953,0.285c-0.336,0.108-0.785,0.221-0.896,0.556c0.67,1.351,1.906,0.06,2.744-0.108l0.23,0.108
		c0.502-0.729,1.398-0.729,2.016-0.896c0.45,0.561-0.508,0.503-0.727,0.843c-0.283,0.279-0.73-0.282-0.897,0.221
		c0,0.227-0.225,0.395,0,0.619c0.897,0.336,1.571-0.672,2.521-0.619c0.674-0.053,0-0.671,0.503-0.951
		c0.393-0.336,0.957-0.561,1.293,0l-0.393,0.391c-0.278-0.055-0.34-0.503-0.672-0.336c-0.167,0.113-0.167,0.281-0.167,0.394
		c-0.061,0.616,0.613,0.503,0.896,0.675C365.097,65.999,365.764,65.439,366.16,64.711"/>
	<path style="fill:#FFFFFF;" d="M357.803,38.576h10.096v11.217h-10.096V38.576z M356.96,50.69h12.008V37.679H356.96V50.69z"/>
	<path style="fill:#FFFFFF;" d="M359.145,61.962c0.453-0.056,0.904-0.561,1.238-0.393c0.225,0.057,0.168-0.223,0.332-0.282
		c1.072-0.222,2.024-0.951,3.256-0.669c-0.054,0.112,0,0.392-0.221,0.392c-0.507,0.503-1.738,0-1.796,0.951
		c0.225,0.06,0.394,0.393,0.729,0.279c0.445-0.56,1.174-0.392,1.849-0.447c1.179,0.336,0.226-0.955,1.179-1.063
		c0.617,0.108,1.516-0.28,1.963,0.335c0,0.168-0.053,0.281-0.172,0.336c-0.168,0.168-0.388,0.058-0.502-0.114
		c-0.225-0.168-0.505-0.054-0.562,0.172c0.058,0.671,0.677,0.562,1.064,0.782c0.674-0.392,1.012-1.176,1.184-1.905
		c-0.452-0.112-0.897,0-1.236-0.333c0.34,0,0.842-0.282,0.727-0.73c-1.119-1.291-3.251-0.393-4.88-0.561l-0.22-0.172
		c0.729-0.73,2.3,0.059,2.688-0.951c-0.053-0.168-0.275-0.168-0.388-0.168c-0.844,0.671-2.356,0.056-2.86,1.119
		c1.178,1.348,3.028-0.055,4.599,0.393c0.22-0.053,0.617,0.28,0.45,0.448c-1.906-0.168-4.206,0.395-6.174-0.168
		c0.114-0.225,0.23-0.333,0.282-0.56c-0.674-0.504-1.686-0.449-2.414-0.562c0,0.507,0.169,0.896-0.113,1.289
		c-0.164,0.227-0.39-0.054-0.5-0.168c-0.228-0.28,0-0.448,0.058-0.673c-0.114-0.559-0.622-0.108-0.958-0.336
		c-0.334,0.113-0.163,0.561-0.334,0.844c0.952,0.165,0.785,1.455,1.627,1.683c-0.225,0.222-0.393,0.448-0.675,0.557
		c-0.221-0.108-0.167-0.39-0.392-0.335c-0.336,0.227-0.954,0.167-0.896,0.73C357.52,62.917,358.309,61.682,359.145,61.962"/>
	<path style="fill:#FFFFFF;" d="M357.468,57.642c0.277,0.168,0.561-0.053,0.842-0.112c0.782,0.112,1.4-0.782,2.074-0.556
		c1.174-0.734,2.524-1.123,3.981-1.011l-0.278,0.558c-0.622,0.227-1.686-0.109-1.907,0.561c0,0.561,0.614,0.34,0.949,0.508
		c0.622-0.729,1.796,0,2.415-0.615c-0.508-0.508,0.387-0.62,0.56-0.956c0.672,0.393,1.738-0.507,2.072,0.503
		c-0.277,0.621-0.727-0.449-1.119,0.113c-0.112,0.676,0.565,0.729,1.01,0.955c0.729-0.34,1.121-1.123,1.121-1.966
		c-0.393-0.112-0.839,0-1.121-0.333c0.225-0.34,0.901-0.168,0.786-0.73c-1.403-1.402-3.646-0.112-5.441-0.673
		c0-0.114,0-0.168,0.054-0.224c0.789-0.619,2.299,0.504,2.586-0.728c-0.12-0.228-0.34-0.114-0.507-0.114
		c-0.729,0.73-2.415-0.172-2.692,1.123c0.11,0.335,0.507,0.391,0.784,0.443c1.514,0.113,3.364-0.725,4.598,0.226
		c-2.24,0.168-4.769,0.449-6.953-0.113l0.11-0.449c-0.613-0.5-1.456-0.728-2.245-0.5c-0.054,0.279,0.171,0.5,0.113,0.783
		c-0.113,0.166-0.053,0.56-0.445,0.505c-0.504-0.166-0.277-0.615-0.225-1.009c-0.11-0.395-0.56-0.112-0.786-0.279
		c-0.503,0.053-0.335,0.615-0.503,0.949c0.672,0.395,1.01,1.182,1.625,1.738c-0.615,0.902-1.343-0.389-1.85,0.674
		C356.96,57.249,357.411,57.363,357.468,57.642"/>
	<path style="fill:#FFFFFF;" d="M356.122,72.112V52.597h13.907c0.268,6.432,0.058,11.947-5.607,14.525
		C361.62,68.527,358.309,69.589,356.122,72.112 M356.122,36.892h13.683v14.641h-13.683
		C356.122,46.653,356.122,36.892,356.122,36.892z M355.058,51.533h-13.577V36.892h13.577
		C355.058,36.892,355.106,46.706,355.058,51.533z M355.058,72.058c-3.141-3.424-7.088-3.473-10.824-6.786
		c-3.17-2.802-2.753-8.554-2.753-12.675h13.577V72.058z M339.743,60.56c-3.081-4.877-3.027-12.564,0-17.497V60.56z M371.77,42.949
		c1.523,2.577,2.277,5.723,2.27,8.881c-0.01,3.125-0.768,6.26-2.27,8.869V42.949z M366.64,67.949
		c2.266-1.425,5.66-4.902,7.253-9.128c1.771-4.726,1.607-8.53,0.322-13.14c-0.781-2.786-2.614-5.115-2.614-5.115v-5.58h-6.214
		l-2.114-1.151l-1.231,0.385l1.362,0.767h-15.357l1.513-0.67l-1.366-0.385c0,0-1.583,0.84-2.339,1.055h-6.28v5.889
		c-2.913,4.433-4.328,11.277-2.389,16.715c1.977,5.533,4.058,7.384,7.703,10.359c4.038,1.848,8.018,3.472,10.878,7.51
		C357.774,71.572,361.849,70.148,366.64,67.949z"/>
	<path style="fill:#FFFFFF;" d="M342.773,42.165c0.839-0.168,1.85-0.225,2.524-0.955c0.221,0.506,0.389-0.054,0.675-0.109
		c1.174-0.172,2.185-1.066,3.42-0.619l-0.061,0.058c-0.168,0.785-1.341,0.617-2.017,0.726c-0.225,0.676,0.34,0.843,0.843,0.843
		c0.729-0.559,1.963-0.056,2.577-0.671c-0.503-0.448,0.339-0.448,0.454-0.897c0.671,0.39,1.739-0.505,2.074,0.503l-0.168,0.114
		c-0.225,0-0.455-0.114-0.676-0.227c-0.113,0.06-0.225,0.172-0.167,0.336c-0.225,0.676,0.561,0.732,0.949,0.843
		c0.843-0.335,0.956-1.233,1.071-2.017c-0.396-0.225-0.789,0.11-1.071-0.28c0.282-0.112,0.9-0.28,0.675-0.788
		c-1.006-1.062-2.975-0.56-4.316-0.502c-0.281,0.055-0.674,0.055-0.674-0.338c0.225-0.336,0.732-0.115,1.125-0.168
		c0.556,0.053,1.288-0.055,1.062-0.676l-0.339-0.107c-0.614,0.668-1.677,0.166-2.353,0.668c-0.061,0.283-0.114,0.676,0.168,0.844
		c1.461,0.335,3.195-0.504,4.713,0.172c0.105,0.108,0.053,0.275-0.062,0.335c-2.128-0.172-4.651,0.448-6.725-0.227l0.168-0.447
		c-0.671-0.336-1.518-0.955-2.41-0.508c-0.057,0.396,0.446,1.068-0.225,1.295c-0.843-0.284,0-0.787-0.396-1.234
		c-0.226,0.055-0.729-0.113-1.007,0.111c-0.618,1.179,1.007,1.571,1.403,2.467l-0.168,0.168c-0.228,0.168-0.564,0.336-0.622-0.058
		c-0.446-0.163-0.613,0.34-0.949,0.394C341.931,41.662,342.606,41.998,342.773,42.165"/>
	<path style="fill:#FFFFFF;" d="M347.593,59.608l4.267,2.69l-0.168,1.067l-5.048-3.142l-0.393-0.783
		C346.529,58.88,347.204,59.328,347.593,59.608 M347.878,57.589c1.4,0.896,2.856,1.684,4.149,2.689l-0.11,0.955
		c-1.571-0.731-3.09-1.738-4.431-2.802L347.878,57.589z M348.942,56.186l3.252,1.906l-0.109,0.956
		c-1.236-0.508-2.525-1.459-3.703-2.188L348.942,56.186z M352.362,55.571l-0.11,1.458c-0.896-0.281-1.686-0.957-2.36-1.458H352.362z
		 M351.524,65.612c-1.572-0.843-3.76-1.966-4.267-3.93c1.518,0.841,2.974,1.796,4.373,2.747
		C351.463,64.769,351.63,65.272,351.524,65.612z M350.398,66.675c1.126,0.615,1.964,1.793,3.2,2.074
		c0.616-4.656,0.445-15.03,0.445-15.03h-6.558c-1.46,0.112-0.564,2.019-1.571,2.692c-0.229,0.168-0.79,0.336-0.957-0.113
		c-0.053-0.507,0.282-0.84,0.622-1.123c0.167-0.447,0.393-1.123,0-1.512c-0.454-0.395-1.125-0.447-1.685-0.339
		c-0.394,0.228-0.676,0.62-0.786,1.011c-0.225,0.672,0,1.456,0.56,1.85c0,0.503-0.393,0.896-0.728,1.235
		c-0.278,0.389-0.058,0.951,0.278,1.232C343.841,62.242,346.865,65.888,350.398,66.675z"/>
	<path style="fill:#FFFFFF;" d="M367,40.091c-0.11-0.452-0.562-0.561-0.949-0.506c-1.068,0.954-1.184,2.692-0.675,3.982
		c0,0.844,2.021,1.682,0.784,2.242c-0.731-0.503-1.628-0.955-2.135-1.738c-0.332-0.844,0-1.794,0.34-2.522
		c0.282-0.675-0.111-1.29,0.393-1.851c-0.336-0.113-0.504-0.394-0.786-0.562c-0.728-0.058-1.685,0-2.131,0.617
		c-0.114,0.561,0.446,0.448,0.785,0.506c0.058,0.447-0.785,0.055-0.613,0.615l0.613,0.282c-0.339,0.335-0.785,0.673-1.287,0.728
		c-0.676-0.279-1.404-0.619-1.629-1.402l0.34-0.28c0.053-0.671-0.733-0.448-1.068-0.671c-0.057,0.391-0.672,0.447-0.618,0.951
		c0.843,0.729,1.403,1.964,2.353,2.581c-0.164,0.165-0.332,0.226-0.561,0.394c-0.274,0.168-0.839,0.168-0.839-0.34
		c-0.728-0.276-0.392,0.619-0.953,0.674c0.173,0.449-0.114,0.621,0.054,1.064l0.508,0.059c0.785-0.842,1.791-0.502,2.748-1.069
		l0.614,1.069l-0.839,0.226c-0.671,0.503,0.617,0.951,0,1.458c-0.393,0.389-0.84-0.112-0.953-0.447
		c-0.676-0.227-0.34,0.668-0.897,0.668c-0.393,0.508,0.451,0.451,0.221,1.011c0.168,0.168,0.283,0.228,0.508,0.28
		c0.389-0.783,1.346-0.561,2.021-0.896c0.392-0.055,0.947-0.674,0.503-1.008c0.335,0.054,0.613-0.227,0.842,0.054
		c-0.335,1.235,1.403,0.899,1.343,1.851c-0.169-0.053-0.222-0.334-0.504-0.221c-0.393,0.503-0.507,1.004,0,1.459
		c0.617-0.283,1.461-0.844,1.628-1.572c0.058-0.674-0.564-0.789-0.953-1.122c0-0.282,0.111-0.562,0.169-0.843
		c0.335,0.226,0.617,0.56,1.062,0.508c0.562-0.06,0.73-0.676,0.562-1.123c-1.174-1.123-1.851-2.635-1.342-4.32
		c0.105-0.28,0.225-0.896,0.727-0.729c0.615,0.616-0.334,1.119-0.281,1.738c0,0.448,0.449,0.616,0.731,0.896
		c0.222,0.06,0.667,0.228,0.73-0.168C366.775,42.052,366.89,40.989,367,40.091"/>
	<path style="fill:#FFFFFF;" d="M352.419,45.415c-0.225,0-0.167,0.286-0.167,0.449c0.11,0.506,0.676,0.453,1.011,0.62
		c0.781-0.448,0.952-1.235,1.117-1.966c-0.336-0.167-0.897,0.115-1.117-0.279c0.277-0.056,0.67-0.336,0.67-0.672
		c-1.12-1.57-3.309-0.34-4.99-0.787c0.45-0.84,1.792-0.053,2.414-0.673c0.168-0.167,0-0.446-0.168-0.503
		c-0.843,0.447-1.91,0.279-2.696,0.673c-0.278,0.335-0.171,0.839,0.225,0.95c1.57,0.34,3.42-0.668,4.65,0.34l-0.167,0.223
		c-2.128-0.562-4.374,0.34-6.39-0.166c-0.618-0.113,0.11-0.396,0-0.729h-0.336c-0.503-0.675-1.461-0.335-2.021-0.507
		c-0.446,0.393,0.335,0.62,0,1.068c-0.053,0.279-0.393,0.447-0.614,0.168c-0.392-0.281,0.054-0.562,0-0.896
		c-0.228-0.45-0.564,0.053-0.9-0.228c-0.278,0.112-0.336,0.448-0.396,0.675c-0.054,0.336,0.339,0.449,0.564,0.561
		c0.168,0.616,1.006,0.951,0.839,1.514c-0.168,0.113-0.561,0.506-0.729,0c-0.446-0.168-0.613,0.393-0.949,0.506
		c-0.061,0.449,0.221,0.562,0.503,0.842c0.896-0.279,1.906-0.227,2.692-0.787c0.282,0.226,0.282-0.168,0.507-0.28
		c1.174-0.223,2.242-0.896,3.53-0.73c-0.172,0.114,0.057,0.508-0.278,0.508c-0.507,0.056-0.904,0.558-1.403,0.28
		c-0.335-0.058-0.508,0.277-0.45,0.562c-0.058,0.503,0.507,0.275,0.786,0.389c0.618-0.615,1.854-0.448,2.691-0.389
		c-0.617,0.615-1.738,0.108-2.467,0.668c-0.114,0.283-0.061,0.622,0.221,0.79c1.518,0.389,3.199-0.45,4.713,0.221
		c0.115,0.06,0.053,0.28-0.053,0.336c-2.3-0.503-4.545,0.393-6.787-0.276c0.11-0.113,0.278-0.34,0.11-0.562h-0.278
		c-0.454-0.729-1.403-0.28-2.025-0.393c-0.106,0.507,0.34,0.955-0.106,1.291c-0.728-0.115-0.336-0.73-0.564-1.123
		c-0.279,0.057-0.614-0.224-0.949,0.057c-0.058,0.282-0.058,0.731,0,0.951c0.671,0.228,0.838,1.066,1.514,1.403l-0.282,0.336
		c-0.226,0.279-0.618,0.055-0.786-0.168c-0.336,0.223-1.006,0.335-0.786,0.897c0.282,0.62,0.896,0.28,1.346,0.28
		c0.786,0.054,1.346-0.731,1.964-0.503c1.121-0.729,2.413-1.008,3.698-1.18c0.455,0,0.061,0.393,0.061,0.619
		c-0.675,0.108-1.293,0.221-1.906,0.221c0,0.228-0.339,0.508,0,0.675c0.781,0.394,1.738-0.28,2.688-0.059
		c1.235,0.115,0.058-1.004,1.183-1.283c0.671,0.221,1.398-0.172,1.959,0.333c0,0.783-0.56,0-0.896,0.168
		c-0.167,0.055-0.113,0.227-0.113,0.395c-0.111,0.615,0.622,0.447,0.957,0.669c0.728-0.448,0.895-1.285,1.063-2.019
		c-0.393,0.06-0.786,0.115-1.063-0.221c0.277-0.114,0.895-0.335,0.67-0.843c-1.23-1.122-3.198-0.389-4.708-0.503l-0.282-0.225
		l0.221-0.168c0.623-0.395,1.91,0.279,2.136-0.675c0-0.335-0.45-0.168-0.564-0.168c0-0.226,0.062-0.448-0.054-0.561
		c0.45-1.118,1.682-0.391,2.521-0.391c0.114,0.168,0.282,0.335,0.062,0.503C352.87,45.81,352.755,45.363,352.419,45.415"/>
	<path style="fill:#FFFFFF;" d="M426.227,44.967c0,0.228,0.28,0.282,0.442,0.34c1.352-1.739,1.576-4.042,1.634-6.392
		c-0.229-1.684-0.507-3.537-1.906-4.545c-0.229,0-0.339,0.221-0.339,0.447C428.136,37.732,427.347,41.941,426.227,44.967"/>
	<path style="fill:#FFFFFF;" d="M418.266,32.519l0.784,0.561c-0.229,0.336-0.675,0.336-1.066,0.395
		C417.983,33.248,418.266,32.912,418.266,32.519 M416.354,33.08c0.112-0.28,0.168-0.615,0.508-0.787l0.109,0.899L416.354,33.08z
		 M416.862,31.396c-0.954,0-1.122,1.009-1.682,1.457c0.277,0.621,1.005,0.901,1.682,1.01c1.231,0.34,2.635,0.113,3.419-0.783
		C419.157,32.519,418.313,31.173,416.862,31.396z"/>
	<path style="fill:#FFFFFF;" d="M72.188,133.595v-1.947c-4.645,0-7.545-1.074-7.545-5.964V92.708c9.177,0,11.356,1.648,12.211,8.885
		h2.158V88.417H37.894v13.176h2.152c0.854-7.236,3.033-8.885,12.21-8.885v32.976c0,4.89-2.898,5.964-7.543,5.964v1.947H72.188"/>
	<path style="fill:#FFFFFF;" d="M111.976,111.915v13.761c0,4.379-2.366,5.842-6.175,5.965v1.955h24.099v-1.955
		c-4.377,0-6.091-1.076-6.091-5.965V96.333c0-4.889,1.714-5.965,6.091-5.965v-1.951H105.8v1.951
		c3.809,0.127,6.175,1.582,6.175,5.965v11.941h-15.52V96.333c0-4.383,2.366-5.838,6.175-5.965v-1.951H80.399v1.951
		c2.994,0.626,4.222,1.076,4.222,5.965v29.342c0,4.889-1.712,5.965-6.091,5.965v1.955h24.101v-1.955
		c-3.809-0.123-6.175-1.586-6.175-5.965v-13.761H111.976"/>
	<path style="fill:#FFFFFF;" d="M170,133.595v-13.41h-1.583c-2.541,9.647-5.584,10.232-9.773,10.232h-5.583
		c-2.666,0-3.177-0.893-3.177-3.301v-15.271c6.753,0.111,11.457-0.748,11.886,5.674h1.706v-14.403h-1.706
		c-0.426,5.632-5.409,5.084-11.886,5.084V91.591h7.108c7.236,0,10.345,2.794,11.045,9.646h1.394v-12.82h-37.307v1.951
		c4.381,0,6.093,1.076,6.093,5.965v29.342c0,4.889-1.712,5.965-6.093,5.965v1.955H170"/>
	<path style="fill:#FFFFFF;" d="M193.526,133.845l1.281,0.028c0.376-1.138,1.129-2.185,2.496-2.185c2.532,0,4.671,3.04,14.399,3.04
		c6.312,0,14.219-4.692,14.219-15.288c0-15.504-24.806-12.832-24.806-23.287c0-3.867,3.571-5.711,7.552-5.711
		c5.919,0,10.091,4.512,11.932,10.283h1.371V88.417h-1.931c-0.315,0.974-0.532,1.619-1.494,1.619c-2.246,0-4.061-2.781-10.566-2.781
		c-7.932,0-16.166,3.42-16.166,13.369c0,16.62,25.129,14.326,25.129,24.736c0,3.383-3.894,6.201-8.554,6.201
		c-6.267,0-12.514-5.063-13.581-11.482h-1.792L193.526,133.845"/>
	<path style="fill:#FFFFFF;" d="M524.866,133.595v-1.828c-3.749,0-5.232-2.36-5.232-7.244V97.229c0-4.884,1.044-6.819,4.573-6.819
		v-1.992h-21.105v1.992c3.579,0,4.631,1.936,4.631,6.819v27.294c0,4.884-1.488,7.244-5.287,7.244v1.828H524.866"/>
	<path style="fill:#FFFFFF;" d="M555.464,133.595l14.012-36.293v27.221c0,5.399-0.966,6.676-6.097,7.244v1.828h23.777v-1.828
		c-5.707-0.568-6.097-2.36-6.097-7.244V97.655c0-6.06,1.032-6.378,6.097-7.245v-1.992h-18.537l-11.122,29.416l-10.93-29.416h-18.482
		v1.992c4.315,0,6.028,2.359,6.028,7.245v27.563c0,4.884-0.886,5.768-6.028,6.549v1.828h16.154v-1.828
		c-5.885-0.889-6.1-1.665-6.1-6.549V99.233l13.797,34.362H555.464"/>
	<path style="fill:#FFFFFF;" d="M628.172,133.595v-13.41h-1.581c-2.542,9.647-5.584,10.232-9.772,10.232h-5.585
		c-2.667,0-3.175-0.893-3.175-3.301v-15.271c6.751,0.111,11.449-0.748,11.884,5.674h1.706v-14.403h-1.706
		c-0.425,5.632-5.412,5.084-11.884,5.084V91.591h7.106c7.235,0,10.345,2.794,11.042,9.646h1.398v-12.82h-37.309v1.951
		c4.378,0,6.097,1.076,6.097,5.965v29.514c0,4.885-1.719,5.965-6.097,5.965v1.783H628.172"/>
	<path style="fill:#FFFFFF;" d="M633.737,133.845h1.281c0.372-1.142,1.129-2.156,2.489-2.156c1.314,0,7.266,3.04,14.404,3.04
		c6.309,0,14.219-4.692,14.219-15.288c0-15.504-24.807-12.832-24.807-23.287c0-3.867,3.572-5.711,7.548-5.711
		c5.925,0,10.096,4.512,11.934,10.283h1.374V88.417h-1.926c-0.324,0.974-0.537,1.619-1.498,1.619c-2.246,0-4.066-2.781-10.567-2.781
		c-7.931,0-16.162,3.42-16.162,13.369c0,16.62,25.126,14.326,25.126,24.736c0,3.383-3.892,6.201-8.558,6.201
		c-6.269,0-12.51-5.063-13.576-11.482h-1.796L633.737,133.845"/>
	<path style="fill:#FFFFFF;" d="M494.221,133.595v-1.947c-4.644,0-7.546-1.074-7.546-5.964V92.708
		c9.184,0,11.359,1.648,12.211,8.885h2.155V88.417h-41.115v13.176h2.15c0.854-7.236,3.034-8.885,12.211-8.885v32.976
		c0,4.89-2.893,5.964-7.543,5.964v1.947H494.221"/>
	<path style="fill:#FFFFFF;" d="M274.466,90.41c2.54,0,3.396,0.634,5.612,3.297v31.929c0,4.884-2.242,5.964-6.893,5.964v1.996
		h18.225v-1.996c-5.019,0-7.232-1.08-7.232-5.964v-25.224h0.127l25.555,33.184h5.347V97.373c0-4.889,1.603-6.631,6.091-6.963v-1.992
		h-15.61v1.992c4.491,0.867,5.453,2.074,5.453,6.963v18.968h-0.123l-20.834-27.923H257.6v1.992c4.062,0.127,6.009,2.032,6.009,5.964
		v22.106c0,8.374-2.725,11.545-9.564,11.545c-4.316,0-9.516-2.025-9.516-8.756V96.373c0-4.888,1.714-5.964,6.092-5.964v-1.992
		h-23.78v1.992c4.381,0,6.091,1.076,6.091,5.964v24.05c0,10.787,7.486,14.416,17.766,14.416c11.258,0,17.213-3.947,17.213-14.547
		V96.373C267.913,91.486,269.978,90.41,274.466,90.41"/>
	<path style="fill:#FFFFFF;" d="M341.399,91.64c11.871-1.39,16.678,7.945,16.678,18.221c0,14.923-3.947,20.274-12.509,20.274
		c-2.806,0-4.168-1.01-4.168-4.688V91.64 M329.639,125.635c0,4.884-1.71,5.964-6.087,5.964v1.996h22.541
		c14.211,0,23.857-5.923,23.857-22.531c0-16.748-9.647-22.646-23.857-22.646h-22.541v1.992c4.377,0,6.087,1.076,6.087,5.964V125.635
		z"/>
	<path style="fill:#FFFFFF;" d="M391.549,115.752H380.43l5.559-16.417L391.549,115.752 M414.007,131.64
		c-2.819,0.018-4.737-1.412-5.884-4.201l-14.436-40.507l-8.234,2.14l-12.79,36.539c-1.846,4.762-4.316,5.784-8.167,6.029v1.955
		h17.967v-1.955c-3.871,0-6.426-1.203-6.426-2.855c0-1.206,0.319-2.16,0.826-3.551l2.311-5.579h13.447l2.939,6.594
		c0.32,0.884,0.697,2.029,0.697,3.044c0,1.521-1.139,2.348-2.603,2.348h-3.494v1.955h48.436v-1.996c-4.373,0-6.95-1.08-6.95-5.964
		v-13.36l10.692-17.043c2.672-4.066,4.383-4.49,8.129-4.822v-1.992h-16.364v1.992c2.546,0,4.329,0.695,4.329,2.475
		c0,1.456-0.694,2.789-1.334,3.997l-7.268,10.901l-6.413-10.963c-0.827-1.588-1.781-3.301-1.781-4.442s1.014-1.968,3.555-1.968
		v-1.992h-24.015v1.992c2.473,0.445,5.345,0.118,7.479,3.424l11.487,18.441v13.36C420.142,130.519,417.351,131.623,414.007,131.64z"
		/>
</g>
</svg>
