<svg id="Layer_1" data-name="Layer 1" xmlns="http://www.w3.org/2000/svg" viewBox="0 0 280 280"><title>play-media-btn</title><path d="M466.33,164.83a140,140,0,1,0,140,140A140,140,0,0,0,466.33,164.83Zm67,151.24-83.51,57.45a13.64,13.64,0,0,1-21.38-11.24V247.38a13.64,13.64,0,0,1,21.38-11.24l83.51,57.45a13.64,13.64,0,0,1,0,22.48Z" transform="translate(-326.33 -164.83)" fill="#f28d0f"/><path d="M533.32,293.6l-83.51-57.45a13.64,13.64,0,0,0-21.38,11.24v114.9a13.65,13.65,0,0,0,21.38,11.24l83.51-57.45a13.64,13.64,0,0,0,0-22.48Z" transform="translate(-326.33 -164.83)" fill="#fff"/></svg>